<svg width="154" height="74" viewBox="0 0 154 74" fill="none" xmlns="http://www.w3.org/2000/svg">
<path d="M40.7471 43.0442C40.7471 43.0442 62.9699 28.8463 78.3335 28.8463C78.3335 28.8463 96.8302 25.9654 116.949 30.8345C137.068 35.7036 144.5 42.017 150.078 40.1633L126.644 40.8494L40.7471 43.0442Z" fill="#8CD0F3"/>
<path opacity="0.1" d="M40.7471 43.0442C40.7471 43.0442 62.9699 28.8463 78.3335 28.8463C78.3335 28.8463 96.8302 25.9654 116.949 30.8345C137.068 35.7036 144.5 42.017 150.078 40.1633L126.644 40.8494L40.7471 43.0442Z" fill="#8CD0F3"/>
<path d="M145.493 64.7743H9.96112L13.6874 49.8447L36.7347 43.717L145.493 46.5752V64.7743Z" fill="#121C3F"/>
<path d="M152.627 55.4455V60.2104C152.627 60.2104 148.603 63.1292 148.238 65.415C148.238 65.415 142.476 66.8782 140.831 66.8782C140.681 66.8782 140.518 66.8782 140.347 66.8953C140.604 66.2056 140.805 65.4964 140.948 64.7744C141.352 62.7484 141.301 60.6581 140.799 58.6542C140.298 56.6502 139.358 54.7824 138.048 53.1854C136.737 51.5883 135.089 50.3018 133.222 49.4184C131.354 48.5351 129.314 48.0769 127.249 48.0769C125.183 48.0769 123.143 48.5351 121.275 49.4184C119.408 50.3018 117.76 51.5883 116.449 53.1854C115.139 54.7824 114.199 56.6502 113.698 58.6542C113.196 60.6581 113.145 62.7484 113.549 64.7744C113.743 65.7511 114.041 66.7042 114.438 67.6174H106.625C106.625 67.6174 106.553 67.642 106.436 67.6932C106.017 67.8827 105.029 68.3831 104.887 69.1697H40.1406L38.8139 69.1583C39.0959 68.685 39.3491 68.1951 39.572 67.6913C39.9881 66.7581 40.2971 65.7809 40.4932 64.7782C40.8786 62.8634 40.8584 60.8891 40.4341 58.9825C40.0097 57.076 39.1906 55.2795 38.0294 53.7089C36.8683 52.1384 35.3909 50.8285 33.6926 49.8639C31.9942 48.8992 30.1126 48.3011 28.169 48.1082C26.2253 47.9152 24.2628 48.1317 22.408 48.7437C20.5531 49.3556 18.8471 50.3494 17.3998 51.6611C15.9526 52.9727 14.7962 54.5731 14.0053 56.359C13.2144 58.1449 12.8065 60.0767 12.808 62.0299C12.8079 62.9507 12.8981 63.8693 13.0771 64.7725C13.3825 66.3018 13.9425 67.7689 14.7336 69.1128C13.8087 68.8873 11.7902 68.2466 11.7902 68.2466C11.7902 68.2466 3.1948 67.3331 1 65.4036L1.33168 65.1743L2.73803 64.2134L2.0974 61.7494C2.02007 61.6455 1.95638 61.5321 1.90787 61.412C1.73729 61.0008 1.58755 60.2369 2.19027 59.2779C3.10383 57.8147 2.64705 52.6025 2.64705 52.6025C2.64705 52.6025 15.0843 44.0071 39.5929 42.0853C39.5929 42.0853 40.1786 42.5402 41.3878 42.6349C42.2066 42.7013 43.3115 42.6008 44.716 42.0853C44.716 42.0853 46.7269 42.9988 55.3299 38.0615C55.3299 38.0615 69.9638 28.001 89.1693 28.9183C89.1693 28.9183 108.922 27.7281 125.749 34.2253C133.001 37.0228 138.518 38.5145 142.451 39.3029C146.083 40.0326 148.363 40.1672 149.407 40.1786H149.43C149.771 40.1786 149.974 40.1786 150.046 40.1786H150.076C150.076 40.1786 150.076 42.3563 150.192 44.9283V44.9415C150.233 45.8361 150.29 46.7781 150.37 47.6936V47.7504C150.59 50.2997 150.969 52.6158 151.626 53.0744L152.627 55.4455Z" fill="#2856B8"/>
<path d="M4.62416 52.3939C4.62416 52.3939 10.1339 48.0953 16.9931 49.0107C16.9931 49.0107 10.7518 53.95 7.93911 53.6297L7.45959 53.2184L4.61658 53.3776C4.61658 53.3776 4.19202 52.7142 4.62416 52.3939Z" fill="#8CD0F3"/>
<path opacity="0.2" d="M9.97269 59.8312V62.369C9.97269 62.369 9.78315 64.7932 7.59403 64.8841L1.33942 65.1931L2.74386 64.2321L2.10324 61.7682C2.02557 61.6652 1.96184 61.5524 1.9137 61.4327C2.48231 60.9096 3.82231 60.0264 6.54781 59.8369L9.97269 59.8312Z" fill="white"/>
<path opacity="0.2" d="M39.0776 49.1945L43.8785 49.005C43.8785 49.005 41.9357 50.5364 40.5635 50.6748C39.1913 50.8132 39.0776 49.1945 39.0776 49.1945Z" fill="white"/>
<path opacity="0.2" d="M49.1833 63.7583C49.1833 63.7583 92.5999 57.7216 103.094 59.6416C103.094 59.6416 106.18 59.8482 107.348 61.0821C108.515 62.3159 107.348 61.5161 107.348 61.5161L49.1833 63.7583Z" fill="white"/>
<path opacity="0.5" d="M73.4874 46.816C73.4874 46.816 74.0371 45.7869 74.9279 45.7641L80.7125 45.4666C80.7125 45.4666 80.6215 46.2664 79.5923 46.5639L73.4874 46.816Z" fill="#18218A"/>
<path opacity="0.5" d="M106.959 45.0779C106.959 45.0779 107.509 44.0487 108.399 44.026L114.184 43.7208C114.184 43.7208 114.093 44.5207 113.064 44.8182L106.959 45.0779Z" fill="#18218A"/>
<path d="M87.2077 30.9766L82.7688 42.6178L66.7646 42.6348H62.6441H59.06H55.9612H52.451C52.451 42.6348 54.5889 41.0655 58.0328 39.0659C59.17 38.4025 60.4607 37.6937 61.8614 36.981C63.1502 36.3214 64.5376 35.6543 65.9951 35.0212C67.1323 34.5209 68.3301 34.0395 69.5545 33.5903C75.106 31.5604 81.3454 30.1976 87.2077 30.9766Z" fill="#8CD0F3"/>
<path d="M112.355 39.4772C112.355 39.4772 105.668 40.4685 99.2866 41.202C96.8473 41.4825 94.4535 41.7251 92.4937 41.8596L92.2208 41.8786C91.4627 41.9279 90.7595 41.9601 90.1625 41.9715C89.2148 41.9885 88.5059 41.9468 88.1515 41.8331L89.9957 30.698C89.9957 30.698 92.2701 30.7226 95.6343 30.8875L96.3697 30.9273C97.0691 30.9671 97.8063 31.0126 98.5759 31.0657C99.6751 31.1415 100.833 31.2325 102.027 31.3424C107.793 31.8712 114.324 32.8208 118.46 34.5304C127.26 38.1732 112.355 39.4772 112.355 39.4772Z" fill="#8CD0F3"/>
<path d="M143.173 45.0778V48.0497C143.173 48.0497 138.372 48.1179 139.402 47.1588C140.068 46.522 140.672 45.824 141.208 45.074L143.173 45.0778Z" fill="#8CD0F3"/>
<path d="M150.366 47.7467L146.467 48.0519V44.4792C146.467 44.4792 148.273 41.9413 150.08 44.754L150.184 44.9189L150.366 47.7467Z" fill="#8CD0F3"/>
<path d="M26.79 73.1877C32.9523 73.1877 37.9479 68.1921 37.9479 62.0298C37.9479 55.8675 32.9523 50.8719 26.79 50.8719C20.6277 50.8719 15.6321 55.8675 15.6321 62.0298C15.6321 68.1921 20.6277 73.1877 26.79 73.1877Z" fill="#182A7C"/>
<path d="M35.7398 62.0204C35.7438 64.3228 34.8634 66.5388 33.2803 68.2106C31.6973 69.8824 29.5326 70.8823 27.2334 71.0038C24.9342 71.1252 22.6762 70.359 20.9258 68.8632C19.1754 67.3675 18.0664 65.2566 17.8279 62.9666C17.5894 60.6766 18.2395 58.3824 19.644 56.558C21.0486 54.7337 23.1002 53.5185 25.375 53.1635C27.6499 52.8084 29.9742 53.3408 31.8678 54.6504C33.7614 55.9601 35.0797 57.9471 35.5503 60.2009C35.6751 60.7994 35.7386 61.409 35.7398 62.0204Z" fill="#3F8FFE"/>
<path opacity="0.5" d="M26.7766 69.7309C31.0254 69.7309 34.4698 66.2781 34.4698 62.0188C34.4698 57.7595 31.0254 54.3066 26.7766 54.3066C22.5278 54.3066 19.0834 57.7595 19.0834 62.0188C19.0834 66.2781 22.5278 69.7309 26.7766 69.7309Z" fill="#18218A"/>
<path d="M29.3507 53.4099V53.7359L26.7901 62.2138L24.7355 53.2697C26.2599 52.9143 27.8507 52.9627 29.3507 53.4099Z" fill="#3F8FFE"/>
<path d="M29.3315 70.6346C27.8648 71.0689 26.3117 71.1224 24.8187 70.79L26.7879 62.2136L29.3315 70.6346Z" fill="#3F8FFE"/>
<path d="M35.7398 62.0206C35.7411 62.9559 35.5965 63.8857 35.3114 64.7765H35.2754L26.7975 62.2159L35.5654 60.203C35.6847 60.8014 35.7431 61.4104 35.7398 62.0206Z" fill="#3F8FFE"/>
<path d="M26.7899 62.2137L18.3121 64.7743H18.2458C17.7736 63.2941 17.6894 61.7173 18.0013 60.1952L26.7899 62.2137Z" fill="#3F8FFE"/>
<path d="M26.7768 63.0023C27.32 63.0023 27.7605 62.5619 27.7605 62.0186C27.7605 61.4753 27.32 61.0349 26.7768 61.0349C26.2335 61.0349 25.7931 61.4753 25.7931 62.0186C25.7931 62.5619 26.2335 63.0023 26.7768 63.0023Z" fill="#182A7C"/>
<path d="M127.18 73.1877C133.343 73.1877 138.338 68.1921 138.338 62.0298C138.338 55.8675 133.343 50.8719 127.18 50.8719C121.018 50.8719 116.023 55.8675 116.023 62.0298C116.023 68.1921 121.018 73.1877 127.18 73.1877Z" fill="#182A7C"/>
<path d="M136.132 62.0204C136.136 64.3228 135.256 66.5388 133.672 68.2106C132.089 69.8824 129.925 70.8823 127.626 71.0038C125.326 71.1252 123.068 70.359 121.318 68.8632C119.568 67.3675 118.459 65.2566 118.22 62.9666C117.982 60.6766 118.632 58.3824 120.036 56.558C121.441 54.7337 123.492 53.5185 125.767 53.1635C128.042 52.8084 130.366 53.3408 132.26 54.6504C134.154 55.9601 135.472 57.9471 135.942 60.2009C136.067 60.7994 136.131 61.409 136.132 62.0204Z" fill="#3F8FFE"/>
<path opacity="0.5" d="M127.169 69.7309C131.418 69.7309 134.862 66.2781 134.862 62.0188C134.862 57.7595 131.418 54.3066 127.169 54.3066C122.92 54.3066 119.476 57.7595 119.476 62.0188C119.476 66.2781 122.92 69.7309 127.169 69.7309Z" fill="#18218A"/>
<path d="M129.741 53.4099V53.7359L127.18 62.2138L125.126 53.2697C126.65 52.9143 128.241 52.9627 129.741 53.4099Z" fill="#3F8FFE"/>
<path d="M129.724 70.6346C128.257 71.0689 126.704 71.1224 125.211 70.79L127.18 62.2136L129.724 70.6346Z" fill="#3F8FFE"/>
<path d="M136.132 62.0204C136.133 62.9557 135.989 63.8855 135.704 64.7763H135.66L127.18 62.2138L135.948 60.2009C136.071 60.7997 136.132 61.4093 136.132 62.0204Z" fill="#3F8FFE"/>
<path d="M127.18 62.2137L118.703 64.7743H118.636C118.164 63.2941 118.08 61.7173 118.392 60.1952L127.18 62.2137Z" fill="#3F8FFE"/>
<path d="M127.169 63.0023C127.712 63.0023 128.153 62.5619 128.153 62.0186C128.153 61.4753 127.712 61.0349 127.169 61.0349C126.626 61.0349 126.185 61.4753 126.185 62.0186C126.185 62.5619 126.626 63.0023 127.169 63.0023Z" fill="#182A7C"/>
<path opacity="0.2" d="M61.8631 36.9926L59.0599 42.6426H55.961L58.0326 39.0774C59.1755 38.4141 60.4624 37.7071 61.8631 36.9926Z" fill="white"/>
<path opacity="0.2" d="M69.5544 33.6017L66.7626 42.6368H62.6422L65.9969 35.0289C67.1417 34.5323 68.332 34.0547 69.5544 33.6017Z" fill="white"/>
<path opacity="0.2" d="M98.5797 31.0751L92.4976 41.8614L92.2247 41.8804C91.4665 41.9297 90.7634 41.9619 90.1663 41.9733L95.6382 30.8988L96.3736 30.9386C97.0635 30.9765 97.8064 31.022 98.5797 31.0751Z" fill="white"/>
<path opacity="0.2" d="M52.557 42.6046L49.0847 66.5219L78.0853 65.887L82.8464 42.7089L52.557 42.6046Z" stroke="white" stroke-miterlimit="10"/>
<path opacity="0.5" d="M106.438 67.6855C106.019 67.875 105.031 68.3754 104.889 69.162H40.1406L38.8139 69.1506C39.0959 68.6773 39.3491 68.1874 39.572 67.6836L106.438 67.6855Z" fill="#18218A"/>
</svg>
