<svg width="154" height="73" viewBox="0 0 154 73" fill="none" xmlns="http://www.w3.org/2000/svg">
<path d="M102.479 69.8777H95.4217C94.5832 69.8777 93.8845 69.3224 93.7622 68.5608L91.8233 56.0114H102.269L104.138 68.1325C104.295 69.0527 103.509 69.8777 102.479 69.8777Z" fill="#EBC9B3"/>
<path d="M59.0708 69.8777H66.1278C66.9663 69.8777 67.665 69.3224 67.7873 68.5608L69.7262 56.0114H59.2804L57.4113 68.1325C57.2716 69.0527 58.0576 69.8777 59.0708 69.8777Z" fill="#EBC9B3"/>
<path opacity="0.2" d="M59.0708 69.8777H66.1278C66.9663 69.8777 67.665 69.3224 67.7873 68.5608L69.7262 56.0114H59.2804L57.4113 68.1325C57.2716 69.0527 58.0576 69.8777 59.0708 69.8777Z" fill="#EBC9B3"/>
<path d="M61.6211 68.5608L63.56 56.0114H59.2804L57.4113 68.1325C57.2716 69.0527 58.0576 69.8618 59.0708 69.8618H59.9617C60.8001 69.8777 61.5163 69.3065 61.6211 68.5608Z" fill="#F6D1BA"/>
<path opacity="0.2" d="M102.479 69.8777H95.4217C94.5832 69.8777 93.8845 69.3224 93.7622 68.5608L91.8233 56.0114H102.269L104.138 68.1325C104.295 69.0527 103.509 69.8777 102.479 69.8777Z" fill="#F6D1BA"/>
<path d="M98.7581 68.1325L96.889 56.0114H91.8233L93.7622 68.5608C93.8845 69.3065 94.5832 69.8777 95.4217 69.8777H97.0986C98.1117 69.8777 98.8978 69.0527 98.7581 68.1325Z" fill="#F6D1BA"/>
<path d="M45.1664 69.8777H52.2235C53.0619 69.8777 53.7606 69.3224 53.8829 68.5608L55.8218 56.0114H45.376L43.507 68.1325C43.3672 69.0527 44.1533 69.8777 45.1664 69.8777Z" fill="#F6D1BA"/>
<path d="M88.5741 69.8777H81.5171C80.6787 69.8777 79.9799 69.3224 79.8577 68.5608L77.9187 56.0114H88.3645L90.2336 68.1325C90.3908 69.0527 89.6048 69.8777 88.5741 69.8777Z" fill="#EBC9B3"/>
<path opacity="0.2" d="M88.5741 69.8777H81.5171C80.6787 69.8777 79.9799 69.3224 79.8577 68.5608L77.9187 56.0114H88.3645L90.2336 68.1325C90.3908 69.0527 89.6048 69.8777 88.5741 69.8777Z" fill="#EBC9B3"/>
<path opacity="0.2" d="M45.0779 69.846H52.135C52.9734 69.846 53.6721 69.2908 53.7944 68.5292L55.7333 55.9797H45.2875L43.4185 68.1009C43.2787 69.021 44.0648 69.846 45.0779 69.846Z" fill="black" fill-opacity="0.4"/>
<path d="M51.2455 32.1341C53.6572 32.1341 55.6124 29.2147 55.6124 25.6134C55.6124 22.0122 53.6572 19.0928 51.2455 19.0928C48.8337 19.0928 46.8785 22.0122 46.8785 25.6134C46.8785 29.2147 48.8337 32.1341 51.2455 32.1341Z" fill="#F6D1BA"/>
<path opacity="0.3" d="M51.2455 32.1341C53.6572 32.1341 55.6124 29.2147 55.6124 25.6134C55.6124 22.0122 53.6572 19.0928 51.2455 19.0928C48.8337 19.0928 46.8785 22.0122 46.8785 25.6134C46.8785 29.2147 48.8337 32.1341 51.2455 32.1341Z" fill="#AC9282"/>
<path d="M113.553 47.3171C113.309 47.3171 113.047 47.3013 112.785 47.2854C112.278 47.2537 111.894 46.8412 111.946 46.3811C111.981 45.921 112.435 45.5878 112.942 45.6196C113.955 45.6989 114.916 45.572 115.684 45.2864C114.654 44.5724 113.903 43.6205 113.623 42.6051C113.064 40.6378 114.13 39.2417 115.475 38.8926C116.785 38.5595 118.514 39.1465 119.248 41.2724C119.685 42.5417 119.597 43.7633 119.003 44.7787C119.947 44.9056 121.012 44.8263 122.13 44.5248C122.619 44.3979 123.126 44.6518 123.283 45.096C123.423 45.5402 123.143 46.0003 122.654 46.1431C120.541 46.7143 118.864 46.5715 117.641 46.2224C116.575 46.9205 115.143 47.3171 113.553 47.3171ZM116.174 40.4792C116.104 40.4792 116.051 40.495 115.981 40.495C115.51 40.622 115.126 41.1931 115.405 42.1768C115.58 42.7797 116.139 43.6205 117.222 44.2075C117.711 43.5412 117.798 42.7162 117.484 41.7643C117.169 40.86 116.61 40.4792 116.174 40.4792Z" fill="#C5A795"/>
<g opacity="0.5">
<path opacity="0.5" d="M113.553 47.3171C113.309 47.3171 113.047 47.3013 112.785 47.2854C112.278 47.2537 111.894 46.8412 111.946 46.3811C111.981 45.921 112.435 45.5878 112.942 45.6196C113.955 45.6989 114.916 45.572 115.684 45.2864C114.654 44.5724 113.903 43.6205 113.623 42.6051C113.064 40.6378 114.13 39.2417 115.475 38.8926C116.785 38.5595 118.514 39.1465 119.248 41.2724C119.685 42.5417 119.597 43.7633 119.003 44.7787C119.947 44.9056 121.012 44.8263 122.13 44.5248C122.619 44.3979 123.126 44.6518 123.283 45.096C123.423 45.5402 123.143 46.0003 122.654 46.1431C120.541 46.7143 118.864 46.5715 117.641 46.2224C116.575 46.9205 115.143 47.3171 113.553 47.3171ZM116.174 40.4792C116.104 40.4792 116.051 40.495 115.981 40.495C115.51 40.622 115.126 41.1931 115.405 42.1768C115.58 42.7797 116.139 43.6205 117.222 44.2075C117.711 43.5412 117.798 42.7162 117.484 41.7643C117.169 40.86 116.61 40.4792 116.174 40.4792Z" fill="#C5A795"/>
</g>
<path d="M90.2687 64.4674H59.63C46.9658 64.4674 36.6947 55.1386 36.6947 43.6362C36.6947 32.1339 46.9658 22.8051 59.63 22.8051H90.2687C102.933 22.8051 113.204 32.1339 113.204 43.6362C113.204 55.1386 102.933 64.4674 90.2687 64.4674Z" fill="#F6D1BA"/>
<path opacity="0.2" d="M102.356 25.9308C105.064 29.4053 106.654 33.6413 106.654 38.2106C106.654 49.9509 96.1728 59.4701 83.2465 59.4701H51.979C48.7125 59.4701 45.5858 58.8514 42.756 57.7567C46.9482 61.8817 52.9397 64.4677 59.6125 64.4677H90.2512C102.915 64.4677 113.187 55.1389 113.187 43.6365C113.204 36.1639 108.872 29.6115 102.356 25.9308Z" fill="#C1A899"/>
<path opacity="0.3" d="M39.1748 37.0999H36.869V37.7821C34.7554 39.0989 33.2706 42.1768 33.2706 45.7465C33.2706 49.3162 34.7554 52.394 36.869 53.7109V54.3931H39.1748C42.4413 54.3931 45.0789 50.5219 45.0789 45.7465C45.0789 40.971 42.4413 37.0999 39.1748 37.0999Z" fill="#AC9282"/>
<path d="M36.9041 54.4249C40.1649 54.4249 42.8083 50.5538 42.8083 45.7783C42.8083 41.003 40.1649 37.1317 36.9041 37.1317C33.6434 37.1317 31 41.003 31 45.7783C31 50.5538 33.6434 54.4249 36.9041 54.4249Z" fill="#F6D1BA"/>
<path opacity="0.3" d="M34.1442 48.174C34.6073 48.174 34.9827 47.066 34.9827 45.699C34.9827 44.332 34.6073 43.224 34.1442 43.224C33.6812 43.224 33.3058 44.332 33.3058 45.699C33.3058 47.066 33.6812 48.174 34.1442 48.174Z" fill="black"/>
<path opacity="0.3" d="M37.7428 48.174C38.2059 48.174 38.5812 47.066 38.5812 45.699C38.5812 44.332 38.2059 43.224 37.7428 43.224C37.2797 43.224 36.9043 44.332 36.9043 45.699C36.9043 47.066 37.2797 48.174 37.7428 48.174Z" fill="black"/>
<path opacity="0.3" d="M51.2454 35.5293C51.9881 35.5293 52.5904 34.4709 52.5904 33.1653C52.5904 31.8598 51.9881 30.8014 51.2454 30.8014C50.5025 30.8014 49.9003 31.8598 49.9003 33.1653C49.9003 34.4709 50.5025 35.5293 51.2454 35.5293Z" fill="black"/>
<path opacity="0.3" d="M42.6337 35.5293C43.3764 35.5293 43.9787 34.4709 43.9787 33.1653C43.9787 31.8598 43.3764 30.8014 42.6337 30.8014C41.8908 30.8014 41.2886 31.8598 41.2886 33.1653C41.2886 34.4709 41.8908 35.5293 42.6337 35.5293Z" fill="black"/>
<path d="M66.4249 28.4216C66.687 27.5649 66.8442 26.6288 66.8442 25.6134C66.8442 22.012 64.8878 19.0928 62.4772 19.0928C60.0666 19.0928 58.1102 22.012 58.1102 25.6134C58.1102 26.1053 58.1452 26.5812 58.215 27.0254L66.4249 28.4216Z" fill="#F6D1BA"/>
<path opacity="0.3" d="M62.8614 25.7562C63.0535 25.7879 63.2457 25.661 63.2457 25.4706C63.2632 24.7408 63.2282 23.4557 63.2282 23.1701C63.2282 21.9326 62.4771 20.9331 61.5688 20.9331C60.6604 20.9331 59.9093 21.9326 59.9093 23.1701C59.9093 23.3129 59.8918 24.4711 59.8918 24.9946C59.8918 25.1374 59.9967 25.2485 60.1539 25.2802L62.8614 25.7562Z" fill="black"/>
<g opacity="0.2">
<path opacity="0.2" d="M58.1977 25.8832C58.1103 25.8832 58.0579 25.8197 58.0579 25.7562C58.1103 24.1538 58.4073 22.7894 58.4073 22.7736C58.4247 22.7101 58.4946 22.6625 58.582 22.6784C58.6518 22.6942 58.7042 22.7577 58.6868 22.837C58.6868 22.8529 58.3898 24.1856 58.3549 25.7721C58.3374 25.8356 58.285 25.8832 58.1977 25.8832Z" fill="black"/>
</g>
<path opacity="0.3" d="M68.4863 27.168H68.8357C68.6086 25.3911 67.7352 23.8522 66.722 22.8051H66.4076C66.6871 23.6618 66.8269 24.6137 66.8269 25.6132V25.6291C66.8269 26.4699 67.5605 27.168 68.4863 27.168Z" fill="black"/>
<path d="M95.0199 30.9125H68.0146C67.3857 30.9125 66.8966 30.4524 66.8966 29.8971C66.8966 29.3259 67.4032 28.8817 68.0146 28.8817H95.0199C95.6488 28.8817 96.1379 29.3418 96.1379 29.8971C96.1554 30.4524 95.6488 30.9125 95.0199 30.9125Z" fill="#3F4249"/>
<path opacity="0.5" d="M95.0199 30.9125H68.0146C67.3857 30.9125 66.8966 30.4524 66.8966 29.8971C66.8966 29.3259 67.4032 28.8817 68.0146 28.8817H95.0199C95.6488 28.8817 96.1379 29.3418 96.1379 29.8971C96.1554 30.4524 95.6488 30.9125 95.0199 30.9125Z" fill="#F6D1BA"/>
<path d="M70.7221 30.9123H93.7972C94.8278 28.9133 95.2471 26.6287 94.8628 24.2964C93.8147 17.982 87.3341 13.6191 80.3819 14.5551L78.2857 14.8407L78.3207 14.9994C72.5038 16.7128 68.7482 22.0436 69.674 27.7075C69.8487 28.8498 70.2156 29.9128 70.7221 30.9123Z" fill="#1C3C81"/>
<path opacity="0.3" d="M70.7221 30.9123H93.7972C94.8278 28.9133 95.2471 26.6287 94.8628 24.2964C93.8147 17.982 87.3341 13.6191 80.3819 14.5551L78.2857 14.8407L78.3207 14.9994C72.5038 16.7128 68.7482 22.0436 69.674 27.7075C69.8487 28.8498 70.2156 29.9128 70.7221 30.9123Z" fill="black"/>
<path d="M69.2195 30.9126H92.4868C93.4475 28.9611 93.8318 26.7559 93.4475 24.4871C92.3994 18.1727 85.9188 13.8098 78.9666 14.7458C72.0144 15.6977 67.2107 21.5838 68.2413 27.8982C68.4335 28.9611 68.7654 29.9607 69.2195 30.9126Z" fill="#2856B8"/>
<path d="M84.679 24.2015C84.6266 24.1698 84.5742 24.1539 84.5043 24.1698L83.299 24.3285C83.1593 23.9794 82.9671 23.6938 82.7051 23.4717L84.3471 23.2496C84.417 23.2338 84.4694 23.2179 84.5043 23.1703C84.5393 23.1227 84.5567 23.0751 84.5393 23.0116L84.4345 22.3612C84.417 22.2977 84.3995 22.2501 84.3471 22.2184C84.2947 22.1866 84.2423 22.1708 84.1724 22.1866L78.3382 22.9799C78.2683 22.9958 78.2159 23.0116 78.181 23.0592C78.146 23.1068 78.1285 23.1544 78.146 23.2179L78.2858 24.0588C78.3032 24.1063 78.3207 24.1539 78.3731 24.1857C78.4255 24.2174 78.4779 24.2333 78.5478 24.2174L79.5609 24.0746C80.5566 23.9477 81.2204 24.0905 81.5523 24.5347L78.6526 24.9313C78.5827 24.9472 78.5303 24.9631 78.4954 25.0107C78.4604 25.0583 78.443 25.1059 78.4604 25.1693L78.5652 25.8198C78.5827 25.8833 78.6002 25.9309 78.6526 25.9626C78.705 25.9943 78.7574 26.0102 78.8273 25.9943L81.8317 25.5818C81.7793 25.9467 81.5872 26.2482 81.2378 26.4703C80.8885 26.7083 80.4168 26.8669 79.788 26.9462L79.0019 27.0573C78.9495 27.0732 78.8971 27.089 78.8622 27.1366C78.8273 27.1842 78.8098 27.2318 78.8273 27.2953L78.967 28.1044C78.9845 28.152 79.0019 28.1996 79.0543 28.2313C80.1024 28.977 80.8361 29.5164 82.513 30.8808C82.6003 30.8808 84.0676 30.7539 84.0676 30.7539C84.1724 30.7381 84.2248 30.6905 84.2598 30.6111C84.2947 30.5318 84.2772 30.4525 84.1899 30.4049C82.5654 29.0722 81.9365 28.5962 81.0457 27.9458C81.8317 27.7554 82.4256 27.4381 82.8623 26.978C83.299 26.5337 83.5087 25.9943 83.5261 25.3597L84.6965 25.2011C84.7663 25.1852 84.8188 25.1693 84.8537 25.1217C84.8886 25.0741 84.9061 25.0265 84.8886 24.9631L84.7838 24.3126C84.7489 24.265 84.7139 24.2333 84.679 24.2015Z" fill="#1C3C81"/>
<path opacity="0.3" d="M71.7525 30.9126H89.9365C91.072 29.1198 91.5611 26.9939 91.2117 24.7886C90.3558 19.5848 85.0281 16.015 79.2986 16.7925C73.5691 17.5699 69.6389 22.4088 70.4948 27.6126C70.6869 28.8025 71.1236 29.9131 71.7525 30.9126Z" fill="black"/>
<path opacity="0.3" d="M78.3622 24.2234C78.4146 24.2551 78.467 24.271 78.5368 24.2551L79.55 24.1123C80.5456 23.9854 81.2094 24.1282 81.5413 24.5724L78.6416 24.9691C78.5718 24.9849 78.5194 25.0008 78.4844 25.0484C78.4495 25.096 78.432 25.1436 78.4495 25.207L78.5543 25.8575C78.5718 25.921 78.5892 25.9686 78.6416 26.0003C78.694 26.032 78.7464 26.0479 78.8163 26.032L81.8208 25.6195C81.7684 25.9844 81.5762 26.2859 81.2269 26.508C80.8775 26.746 80.4059 26.9046 79.777 26.984L78.991 27.095C78.9386 27.1109 78.8862 27.1268 78.8513 27.1743C78.8163 27.2219 78.7988 27.2695 78.8163 27.333L78.9561 28.1421C78.9735 28.1897 78.991 28.2373 79.0434 28.269C80.0915 29.0147 80.8251 29.5541 82.502 30.9186H83.0785L84.0567 30.7916C84.1615 30.7758 84.2139 30.7282 84.2488 30.6489C84.2838 30.5695 84.2663 30.4902 84.179 30.4426C82.5544 29.1099 81.9256 28.634 81.0347 27.9835C81.8208 27.7931 82.4147 27.4758 82.8514 27.0157C83.2881 26.5715 83.4977 26.032 83.5152 25.3974L84.703 25.2388C84.7729 25.2229 84.8253 25.207 84.8602 25.1594C84.8951 25.1119 84.9126 25.0643 84.8951 25.0008L84.7903 24.3503C84.7729 24.2868 84.7554 24.2393 84.703 24.2075C84.6506 24.1758 84.5982 24.1599 84.5283 24.1758L83.323 24.3344C83.1833 23.9854 82.9911 23.6998 82.7291 23.4777L84.3711 23.2556C84.441 23.2397 84.4934 23.2239 84.5283 23.1763C84.5633 23.1287 84.5807 23.0811 84.5633 23.0176L84.4584 22.3671C84.441 22.3037 84.4235 22.2561 84.3711 22.2244C84.3187 22.1926 84.2663 22.1768 84.1964 22.1926L78.3622 22.9859C78.2923 23.0018 78.2399 23.0176 78.2049 23.0652C78.17 23.1128 78.1525 23.1604 78.17 23.2239L78.3098 24.0647C78.2923 24.1441 78.3097 24.1758 78.3622 24.2234Z" fill="black"/>
<path opacity="0.2" d="M71.7525 30.9125H72.9927C72.3114 29.8812 71.8398 28.7072 71.6302 27.438C70.8092 22.4087 74.46 17.7284 79.875 16.713C79.6829 16.7289 79.4907 16.7449 79.2986 16.7766C73.5691 17.554 69.6389 22.3928 70.4948 27.5966C70.6869 28.8024 71.1236 29.913 71.7525 30.9125Z" fill="black"/>
<path d="M83.1068 30.8965C83.1942 30.8806 83.2466 30.833 83.264 30.7537C83.299 30.6744 83.2815 30.5951 83.1942 30.5475C81.5697 29.2148 80.9408 28.7388 80.0499 28.0883C80.836 27.8979 81.4299 27.5806 81.8666 27.1205C82.3033 26.6763 82.5129 26.1369 82.5304 25.5023L83.7007 25.3436C83.7706 25.3278 83.823 25.3119 83.8579 25.2643C83.8929 25.2167 83.9104 25.1691 83.8929 25.1057L83.7881 24.4552C83.7706 24.3917 83.7531 24.3441 83.7007 24.3124C83.6483 24.2807 83.5959 24.2648 83.5261 24.2807L82.3208 24.4393C82.181 24.0903 81.9889 23.8047 81.7269 23.5826L83.3688 23.3605C83.4387 23.3446 83.4911 23.3287 83.5261 23.2811C83.561 23.2335 83.5785 23.1859 83.561 23.1225L83.4562 22.472C83.4387 22.4085 83.4213 22.3609 83.3688 22.3292C83.3164 22.2975 83.264 22.2816 83.1942 22.2975L77.3599 23.0908C77.29 23.1066 77.2376 23.1225 77.2027 23.1701C77.1677 23.2177 77.1503 23.2653 77.1677 23.3287L77.3075 24.1696C77.325 24.2172 77.3424 24.2648 77.3948 24.2965C77.4472 24.3282 77.4996 24.3441 77.5695 24.3282L78.5826 24.1855C79.5783 24.0585 80.2421 24.2013 80.574 24.6456L77.6743 25.0422C77.6044 25.0581 77.552 25.0739 77.5171 25.1215C77.4822 25.1691 77.4647 25.2167 77.4822 25.2802L77.587 25.9306C77.6044 25.9941 77.6219 26.0417 77.6743 26.0734C77.7267 26.1052 77.7791 26.121 77.849 26.1052L80.8535 25.6927C80.8011 26.0576 80.6089 26.359 80.2596 26.5811C79.9102 26.8191 79.4386 26.9778 78.8097 27.0571L78.0237 27.1681C77.9713 27.184 77.9189 27.1999 77.8839 27.2475C77.849 27.2951 77.8315 27.3427 77.849 27.4061L77.9887 28.2153C78.0062 28.2628 78.0237 28.3104 78.0761 28.3422C79.0892 29.0561 79.8054 29.5955 81.36 30.8489H83.1068V30.8965Z" fill="#2856B8"/>
<path opacity="0.5" d="M96.1554 29.9131H66.8966C66.9141 30.4684 67.4032 30.9126 68.0146 30.9126H95.0199C95.6313 30.9126 96.1379 30.4684 96.1554 29.9131Z" fill="#F6D1BA"/>
<path d="M83.6482 10.113C83.194 10.0337 82.8971 9.63704 82.9844 9.22454C83.0019 9.12935 82.932 9.0183 82.8272 9.00243C82.7224 8.98656 82.6001 9.05002 82.5827 9.14521C82.4953 9.55771 82.0586 9.82742 81.6045 9.74809C81.4997 9.73223 81.3774 9.79569 81.3599 9.89089C81.3424 9.98608 81.4123 10.0971 81.5171 10.113C81.9713 10.1923 82.2682 10.589 82.1809 11.0015C82.1634 11.0967 82.2333 11.2077 82.3381 11.2236C82.4429 11.2394 82.5652 11.176 82.5827 11.0808C82.67 10.6683 83.1067 10.3986 83.5609 10.4779C83.6657 10.4938 83.788 10.4303 83.8054 10.3351C83.8404 10.2399 83.7705 10.1289 83.6482 10.113Z" fill="#1C3C81"/>
<path d="M100.854 18.236C101.114 18.236 101.326 18.0442 101.326 17.8076C101.326 17.5711 101.114 17.3793 100.854 17.3793C100.593 17.3793 100.382 17.5711 100.382 17.8076C100.382 18.0442 100.593 18.236 100.854 18.236Z" fill="#1C3C81"/>
</svg>
