<svg width="153" height="73" viewBox="0 0 153 73" fill="none" xmlns="http://www.w3.org/2000/svg">
<path d="M120.298 36.86C119.203 37.3043 117.281 37.6678 115.056 37.9612C109.006 38.7592 100.714 39.0425 100.714 39.0425C100.714 39.0425 58.1039 42.9274 26.1661 28.4794C26.1661 28.4794 21.5206 25.8018 25.8358 22.1998C26.4987 21.6607 27.2039 21.1874 27.943 20.7855C27.943 20.7855 27.9609 20.7655 27.9962 20.7284C28.4864 20.2302 29.0163 19.7812 29.5795 19.387C31.2337 18.2115 34.0278 16.8169 37.4277 17.4485L121.305 32.3616C121.305 32.3616 124.369 35.2069 120.298 36.86Z" fill="#2856B8"/>
<path d="M103.583 30.1018L121.144 16.4067L128.883 17.878L121.305 32.3613C121.305 32.3613 103.785 32.5145 103.583 30.1018Z" fill="#2856B8"/>
<path d="M59.3736 21.7827L94.3511 11L99.9896 12.2949L84.1896 20.1074L79.2506 26.18L59.3736 21.7827Z" fill="#2856B8"/>
<path d="M115.056 37.9611C109.006 38.7591 100.714 39.0424 100.714 39.0424C100.714 39.0424 58.1039 42.9274 26.1661 28.4794C26.1661 28.4794 21.5206 25.8017 25.8358 22.1997L25.8505 22.2655C25.8505 22.2655 32.7415 27.3851 65.668 31.6598L115.056 37.9611Z" fill="#8CD0F3"/>
<path d="M109.433 37.6651L125.072 44.6831L129 44.2036L119.646 36.4768C119.646 36.4768 108.332 33.8246 109.433 37.6651Z" fill="#2856B8"/>
<path d="M31.5148 23.0152C30.7681 23.0296 29.0587 21.6535 27.996 20.7284C28.4862 20.2301 29.0161 19.7812 29.5793 19.387C30.4359 20.1097 31.9608 21.2799 32.8084 21.2382C34.032 21.178 32.638 22.9939 31.5148 23.0152Z" fill="#8CD0F3"/>
<path d="M102.559 61.9267L92.5185 62.5037L64.2912 41.5809L59.0509 37.6967L56.5041 35.809C61.28 31.3721 80.763 37.4897 80.763 37.4897C81.1362 37.8358 81.2545 38.4107 81.2376 39.0456C81.2055 40.2354 80.6972 41.6359 80.5011 42.1342C80.454 42.2544 80.4251 42.3219 80.4251 42.3219L102.559 61.9267Z" fill="#2856B8"/>
</svg>
