<svg width="93" height="22" viewBox="0 0 93 22" fill="none" xmlns="http://www.w3.org/2000/svg">
<path d="M16.6152 10.4533C14.6875 11.0006 12.2598 11.3231 9.77907 11.3021C4.30496 11.2557 1.74605 10.021 1.74605 10.021C0.704849 9.59508 0.111483 9.12302 0.111483 8.69321V6.73479C0.111483 6.71166 0.114134 6.68903 0.117723 6.66669C0.456142 7.21065 1.29325 7.61833 2.06468 7.89384V9.13561C2.06468 9.30668 2.20816 9.44536 2.38523 9.44536C2.5623 9.44536 2.70578 9.30668 2.70578 9.13561V8.10034C2.89918 8.15651 3.07434 8.20223 3.21867 8.23762V9.74479C3.21867 9.97289 3.41002 10.1578 3.64607 10.1578C3.88204 10.1578 4.07348 9.97289 4.07348 9.74479V8.41592C5.67449 8.70803 7.64606 8.88054 9.77907 8.88054C14.8481 8.88054 19.0082 7.90735 19.4406 6.66669C19.4443 6.68903 19.4468 6.7117 19.4468 6.73479V8.73591C19.4467 9.30779 18.3882 9.94976 16.6152 10.4533Z" fill="white"/>
<path d="M18.6186 15.7582C16.6909 16.3055 14.2632 16.6279 11.7825 16.6069C6.30837 16.5605 3.74946 15.3259 3.74946 15.3259C2.70826 14.8999 2.1149 14.4279 2.1149 13.9981V12.0397C2.1149 12.0165 2.11755 11.9939 2.12114 11.9716C2.45956 12.5155 3.29667 12.9232 4.06809 13.1987V14.4405C4.06809 14.6115 4.21157 14.7502 4.38865 14.7502C4.56572 14.7502 4.7092 14.6115 4.7092 14.4405V13.4052C4.9026 13.4614 5.07775 13.5071 5.22208 13.5425V15.0497C5.22208 15.2778 5.41343 15.4627 5.64949 15.4627C5.88546 15.4627 6.07689 15.2778 6.07689 15.0497V13.7208C7.67791 14.0129 9.64948 14.1854 11.7825 14.1854C16.8515 14.1854 21.0116 13.2122 21.444 11.9716C21.4477 11.9939 21.4502 12.0166 21.4502 12.0397V14.0408C21.4502 14.6127 20.3916 15.2546 18.6186 15.7582Z" fill="white"/>
<path d="M21.3754 12.0079C21.037 12.5518 20.1999 12.9595 19.4284 13.235V14.4767C19.4284 14.6478 19.285 14.7865 19.1079 14.7865C18.9308 14.7865 18.7873 14.6478 18.7873 14.4767V13.4415C18.594 13.4976 18.4188 13.5434 18.2745 13.5788V15.0859C18.2745 15.314 18.0831 15.4989 17.847 15.4989C17.6111 15.4989 17.4196 15.314 17.4196 15.0859V13.757C15.8186 14.0492 13.8471 14.2217 11.7141 14.2217C6.64504 14.2217 2.48495 13.2485 2.05258 12.0078C2.04891 12.0302 2.04639 12.0528 2.04639 12.0759V14.077C2.04639 14.649 3.10498 15.291 4.87794 15.7945C6.80562 16.3418 9.23336 16.6642 11.7141 16.6432C17.1881 16.5968 19.7469 15.3622 19.747 15.3621C20.7882 14.9362 21.3816 14.4641 21.3816 14.0344V12.076C21.3817 12.0529 21.3791 12.0302 21.3754 12.0079Z" fill="white"/>
<path d="M19.4394 6.77C19.101 7.31396 18.2639 7.72164 17.4924 7.99715V9.23888C17.4924 9.40999 17.349 9.54863 17.1719 9.54863C16.9948 9.54863 16.8513 9.40999 16.8513 9.23888V8.20365C16.6579 8.25978 16.4828 8.30554 16.3384 8.34093V9.84806C16.3384 10.0762 16.1471 10.2611 15.911 10.2611C15.675 10.2611 15.4836 10.0762 15.4836 9.84806V8.51919C13.8826 8.8113 11.911 8.98381 9.77802 8.98381C4.70901 8.98381 0.548911 8.01062 0.116549 6.76996C0.112873 6.7923 0.110352 6.81498 0.110352 6.83806V8.83918C0.110352 9.41111 1.16895 10.0531 2.9419 10.5566C4.86958 11.1039 7.29732 11.4263 9.77802 11.4054C15.2521 11.359 17.811 10.1243 17.811 10.1243C18.8522 9.69835 19.4456 9.22629 19.4456 8.79652V6.8381C19.4457 6.81502 19.4431 6.79234 19.4394 6.77Z" fill="white"/>
<path d="M19.3291 17.227C18.9906 17.771 18.1535 18.1787 17.3821 18.4542V19.6959C17.3821 19.867 17.2386 20.0057 17.0615 20.0057C16.8844 20.0057 16.7409 19.867 16.7409 19.6959V18.6607C16.5476 18.7168 16.3724 18.7626 16.2281 18.798V20.3051C16.2281 20.5332 16.0367 20.7181 15.8007 20.7181C15.5647 20.7181 15.3733 20.5332 15.3733 20.3051V18.9762C13.7722 19.2683 11.8007 19.4408 9.66767 19.4408C4.59866 19.4408 0.438559 18.4676 0.00619722 17.227C0.00252154 17.2493 0 17.272 0 17.2951V19.2962C0 19.8681 1.05859 20.5101 2.83155 21.0136C4.75923 21.561 7.18697 21.8834 9.66767 21.8624C15.1417 21.816 17.7006 20.5814 17.7006 20.5813C18.7418 20.1554 19.3352 19.6833 19.3352 19.2535V17.2951C19.3353 17.272 19.3327 17.2494 19.3291 17.227Z" fill="white"/>
<path d="M9.66758 19.4531C7.53458 19.4531 5.56301 19.2806 3.96199 18.9884V20.3174C3.96199 20.5454 3.77056 20.7304 3.53459 20.7304C3.29853 20.7304 3.10719 20.5454 3.10719 20.3174V18.8102C2.96285 18.7748 2.7877 18.7291 2.5943 18.6729V19.7081C2.5943 19.8792 2.45082 20.0179 2.27375 20.0179C2.09667 20.0179 1.95319 19.8792 1.95319 19.7081V18.4664C1.18177 18.1909 0.344659 17.7832 0.0062401 17.2393C0.00256442 17.2616 0 17.2842 0 17.3073V19.2657C0 19.6955 0.593365 20.1676 1.63456 20.5935C1.63465 20.5936 4.19348 21.8282 9.66758 21.8745C12.1483 21.8956 14.5761 21.5731 16.5037 21.0258C18.2767 20.5223 19.3353 19.8804 19.3353 19.3084V17.3074C19.3353 17.2842 19.3327 17.2616 19.3291 17.2393C18.8967 18.4798 14.7366 19.4531 9.66758 19.4531Z" fill="white"/>
<path d="M10.208 12.2247C7.72823 12.2891 5.29955 11.9233 3.372 11.376C2.89002 11.2391 2.46125 11.0919 2.0918 10.9388C2.28114 12.2305 6.52419 13.2632 11.7317 13.2632C17.0597 13.2632 21.3788 12.1822 21.3788 10.8487C21.3788 10.3723 20.8274 9.92818 19.8757 9.55396V9.61582C19.8757 10.0673 19.2216 10.5654 18.0811 11.0076C18.081 11.0076 15.5717 12.0855 10.208 12.2247Z" fill="white"/>
<path d="M9.69261 18.4989C14.9001 18.4989 19.1432 17.4661 19.3325 16.1744C18.963 16.3275 18.5342 16.4747 18.0524 16.6116C16.1246 17.1589 13.6961 17.5247 11.2163 17.4603C5.85259 17.3211 3.34335 16.2432 3.34335 16.2432C2.20278 15.801 1.54859 15.3028 1.54859 14.8515V14.7896C0.597018 15.1638 0.0454102 15.6079 0.0454102 16.0844C0.0453674 17.4178 4.36454 18.4989 9.69261 18.4989Z" fill="white"/>
<path d="M9.67516 7.99998C14.9571 7.99998 19.239 6.95531 19.239 5.66665C19.239 4.37798 14.9571 3.33331 9.67516 3.33331C4.3932 3.33331 0.111328 4.37798 0.111328 5.66665C0.111328 6.95531 4.3932 7.99998 9.67516 7.99998Z" fill="white"/>
<rect x="27.0426" y="2.66669" width="1.97872" height="19.3333" rx="0.989362" fill="white"/>
<path d="M40.9643 12.338C40.9643 11.51 40.7783 10.85 40.4063 10.358C40.0343 9.854 39.4823 9.602 38.7503 9.602C38.5103 9.602 38.2883 9.614 38.0843 9.638C37.8803 9.65 37.7123 9.668 37.5803 9.692V14.534C37.7483 14.642 37.9643 14.732 38.2283 14.804C38.5043 14.876 38.7803 14.912 39.0563 14.912C40.3283 14.912 40.9643 14.054 40.9643 12.338ZM43.7003 12.266C43.7003 12.998 43.6103 13.664 43.4303 14.264C43.2503 14.864 42.9863 15.38 42.6383 15.812C42.2903 16.244 41.8583 16.58 41.3423 16.82C40.8263 17.06 40.2323 17.18 39.5603 17.18C39.1883 17.18 38.8403 17.144 38.5163 17.072C38.1923 17 37.8803 16.898 37.5803 16.766V20.33H34.8983V7.856C35.1383 7.784 35.4143 7.718 35.7263 7.658C36.0383 7.586 36.3623 7.526 36.6983 7.478C37.0463 7.43 37.3943 7.394 37.7423 7.37C38.1023 7.334 38.4443 7.316 38.7683 7.316C39.5483 7.316 40.2443 7.436 40.8563 7.676C41.4683 7.904 41.9843 8.234 42.4043 8.666C42.8243 9.086 43.1423 9.602 43.3583 10.214C43.5863 10.826 43.7003 11.51 43.7003 12.266ZM54.6176 12.248C54.6176 12.992 54.5096 13.676 54.2936 14.3C54.0776 14.912 53.7656 15.44 53.3576 15.884C52.9496 16.316 52.4576 16.652 51.8816 16.892C51.3176 17.132 50.6816 17.252 49.9736 17.252C49.2776 17.252 48.6416 17.132 48.0656 16.892C47.5016 16.652 47.0156 16.316 46.6076 15.884C46.1996 15.44 45.8816 14.912 45.6536 14.3C45.4256 13.676 45.3116 12.992 45.3116 12.248C45.3116 11.504 45.4256 10.826 45.6536 10.214C45.8936 9.602 46.2176 9.08 46.6256 8.648C47.0456 8.216 47.5376 7.88 48.1016 7.64C48.6776 7.4 49.3016 7.28 49.9736 7.28C50.6576 7.28 51.2816 7.4 51.8456 7.64C52.4216 7.88 52.9136 8.216 53.3216 8.648C53.7296 9.08 54.0476 9.602 54.2756 10.214C54.5036 10.826 54.6176 11.504 54.6176 12.248ZM51.8816 12.248C51.8816 11.42 51.7136 10.772 51.3776 10.304C51.0536 9.824 50.5856 9.584 49.9736 9.584C49.3616 9.584 48.8876 9.824 48.5516 10.304C48.2156 10.772 48.0476 11.42 48.0476 12.248C48.0476 13.076 48.2156 13.736 48.5516 14.228C48.8876 14.708 49.3616 14.948 49.9736 14.948C50.5856 14.948 51.0536 14.708 51.3776 14.228C51.7136 13.736 51.8816 13.076 51.8816 12.248ZM64.7772 16.676C64.3212 16.808 63.7332 16.928 63.0132 17.036C62.2932 17.156 61.5372 17.216 60.7452 17.216C59.9412 17.216 59.2692 17.108 58.7292 16.892C58.2012 16.676 57.7812 16.376 57.4692 15.992C57.1572 15.596 56.9352 15.128 56.8032 14.588C56.6712 14.048 56.6052 13.454 56.6052 12.806V7.532H59.2872V12.482C59.2872 13.346 59.4012 13.97 59.6292 14.354C59.8572 14.738 60.2832 14.93 60.9072 14.93C61.0992 14.93 61.3032 14.924 61.5192 14.912C61.7352 14.888 61.9272 14.864 62.0952 14.84V7.532H64.7772V16.676ZM73.3608 12.338C73.3608 11.51 73.1748 10.85 72.8028 10.358C72.4308 9.854 71.8788 9.602 71.1468 9.602C70.9068 9.602 70.6848 9.614 70.4808 9.638C70.2768 9.65 70.1088 9.668 69.9768 9.692V14.534C70.1448 14.642 70.3608 14.732 70.6248 14.804C70.9008 14.876 71.1768 14.912 71.4528 14.912C72.7248 14.912 73.3608 14.054 73.3608 12.338ZM76.0968 12.266C76.0968 12.998 76.0068 13.664 75.8268 14.264C75.6468 14.864 75.3828 15.38 75.0348 15.812C74.6868 16.244 74.2548 16.58 73.7388 16.82C73.2228 17.06 72.6288 17.18 71.9568 17.18C71.5848 17.18 71.2368 17.144 70.9128 17.072C70.5888 17 70.2768 16.898 69.9768 16.766V20.33H67.2948V7.856C67.5348 7.784 67.8108 7.718 68.1228 7.658C68.4348 7.586 68.7588 7.526 69.0948 7.478C69.4428 7.43 69.7908 7.394 70.1388 7.37C70.4988 7.334 70.8408 7.316 71.1648 7.316C71.9448 7.316 72.6408 7.436 73.2528 7.676C73.8648 7.904 74.3808 8.234 74.8008 8.666C75.2208 9.086 75.5388 9.602 75.7548 10.214C75.9828 10.826 76.0968 11.51 76.0968 12.266ZM84.2241 12.338C84.2241 11.51 84.0381 10.85 83.6661 10.358C83.2941 9.854 82.7421 9.602 82.0101 9.602C81.7701 9.602 81.5481 9.614 81.3441 9.638C81.1401 9.65 80.9721 9.668 80.8401 9.692V14.534C81.0081 14.642 81.2241 14.732 81.4881 14.804C81.7641 14.876 82.0401 14.912 82.3161 14.912C83.5881 14.912 84.2241 14.054 84.2241 12.338ZM86.9601 12.266C86.9601 12.998 86.8701 13.664 86.6901 14.264C86.5101 14.864 86.2461 15.38 85.8981 15.812C85.5501 16.244 85.1181 16.58 84.6021 16.82C84.0861 17.06 83.4921 17.18 82.8201 17.18C82.4481 17.18 82.1001 17.144 81.7761 17.072C81.4521 17 81.1401 16.898 80.8401 16.766V20.33H78.1581V7.856C78.3981 7.784 78.6741 7.718 78.9861 7.658C79.2981 7.586 79.6221 7.526 79.9581 7.478C80.3061 7.43 80.6541 7.394 81.0021 7.37C81.3621 7.334 81.7041 7.316 82.0281 7.316C82.8081 7.316 83.5041 7.436 84.1161 7.676C84.7281 7.904 85.2441 8.234 85.6641 8.666C86.0841 9.086 86.4021 9.602 86.6181 10.214C86.8461 10.826 86.9601 11.51 86.9601 12.266Z" fill="white"/>
</svg>
