<svg width="372" height="205" viewBox="0 0 372 205" fill="none" xmlns="http://www.w3.org/2000/svg">
<path d="M0.485274 32.4768V0H372V204.854H353.951H331.89C328.17 204.854 326.07 205.183 322.364 204.854C316.97 204.374 314.134 202.934 308.827 201.856C302.393 200.548 298.465 201.063 292.282 198.858L292.281 198.857C287.747 197.24 285.071 196.286 281.252 193.362C275.35 188.843 274.24 184.116 270.222 177.873C266.433 171.985 266.314 167.172 261.197 162.384C256.091 157.606 252.033 155.708 245.154 154.39C240.347 153.468 237.504 154.704 232.619 154.39C222.043 153.708 215.714 153.222 206.047 148.894C196.224 144.495 183.986 132.405 183.986 132.405L165.436 120.914C165.436 120.914 153.499 113.519 144.88 111.92C137.95 110.634 133.769 110.686 126.83 111.92C120.062 113.124 116.807 115.747 110.285 117.916C101.764 120.75 97.0312 122.643 88.2249 124.411L88.004 124.455C76.7729 126.711 70.1053 128.049 58.6441 126.909C49.1934 125.969 43.481 125.328 35.0798 120.914C27.0959 116.718 23.2707 112.867 17.5318 105.924C10.9044 97.907 8.39065 92.2627 4.9976 82.4411C2.01011 73.7934 1.43302 68.5544 0.485274 59.4575C-0.606592 48.9772 0.485274 32.4768 0.485274 32.4768Z" fill="#01DBA2"/>
</svg>
