<svg width="633" height="206" viewBox="0 0 633 206" fill="none" xmlns="http://www.w3.org/2000/svg">
<path d="M0.825748 32.6352V0H633V205.853H602.287H564.749C558.419 205.853 554.845 206.184 548.539 205.853C539.361 205.371 534.534 203.924 525.505 202.84C514.555 201.527 507.872 202.044 497.351 199.828L497.349 199.827C489.635 198.202 485.08 197.243 478.582 194.305C468.539 189.764 466.651 185.014 459.813 178.741C453.365 172.824 453.164 167.987 444.457 163.176C435.767 158.374 428.862 156.468 417.156 155.143C408.977 154.217 404.14 155.459 395.828 155.143C377.831 154.458 367.062 153.97 350.612 149.62C333.897 145.2 313.074 133.051 313.074 133.051L281.508 121.503C281.508 121.503 261.196 114.073 246.529 112.466C234.738 111.174 227.624 111.226 215.816 112.466C204.299 113.675 198.76 116.311 187.663 118.491C173.163 121.339 165.11 123.241 150.125 125.018L149.749 125.063C130.638 127.329 119.292 128.674 99.7896 127.528C83.7082 126.584 73.9878 125.94 59.6922 121.503C46.1068 117.288 39.5977 113.417 29.8324 106.441C18.5551 98.3846 14.2776 92.7128 8.50398 82.8432C3.42044 74.1534 2.43844 68.8888 0.825748 59.7475C-1.03218 49.2161 0.825748 32.6352 0.825748 32.6352Z" fill="#01DBA2"/>
</svg>
