<svg width="539" height="160" viewBox="0 0 539 160" fill="none" xmlns="http://www.w3.org/2000/svg">
<path d="M212.84 82.92C212.84 77.4 211.6 73 209.12 69.72C206.64 66.36 202.96 64.68 198.08 64.68C196.48 64.68 195 64.76 193.64 64.92C192.28 65 191.16 65.12 190.28 65.28V97.56C191.4 98.28 192.84 98.88 194.6 99.36C196.44 99.84 198.28 100.08 200.12 100.08C208.6 100.08 212.84 94.36 212.84 82.92ZM231.08 82.44C231.08 87.32 230.48 91.76 229.28 95.76C228.08 99.76 226.32 103.2 224 106.08C221.68 108.96 218.8 111.2 215.36 112.8C211.92 114.4 207.96 115.2 203.48 115.2C201 115.2 198.68 114.96 196.52 114.48C194.36 114 192.28 113.32 190.28 112.44V136.2H172.4V53.04C174 52.56 175.84 52.12 177.92 51.72C180 51.24 182.16 50.84 184.4 50.52C186.72 50.2 189.04 49.96 191.36 49.8C193.76 49.56 196.04 49.44 198.2 49.44C203.4 49.44 208.04 50.24 212.12 51.84C216.2 53.36 219.64 55.56 222.44 58.44C225.24 61.24 227.36 64.68 228.8 68.76C230.32 72.84 231.08 77.4 231.08 82.44ZM303.862 82.32C303.862 87.28 303.142 91.84 301.702 96C300.262 100.08 298.182 103.6 295.462 106.56C292.742 109.44 289.462 111.68 285.622 113.28C281.862 114.88 277.622 115.68 272.902 115.68C268.262 115.68 264.022 114.88 260.182 113.28C256.422 111.68 253.182 109.44 250.462 106.56C247.742 103.6 245.622 100.08 244.102 96C242.582 91.84 241.822 87.28 241.822 82.32C241.822 77.36 242.582 72.84 244.102 68.76C245.702 64.68 247.862 61.2 250.582 58.32C253.382 55.44 256.662 53.2 260.422 51.6C264.262 50 268.422 49.2 272.902 49.2C277.462 49.2 281.622 50 285.382 51.6C289.222 53.2 292.502 55.44 295.222 58.32C297.942 61.2 300.062 64.68 301.582 68.76C303.102 72.84 303.862 77.36 303.862 82.32ZM285.622 82.32C285.622 76.8 284.502 72.48 282.262 69.36C280.102 66.16 276.982 64.56 272.902 64.56C268.822 64.56 265.662 66.16 263.422 69.36C261.182 72.48 260.062 76.8 260.062 82.32C260.062 87.84 261.182 92.24 263.422 95.52C265.662 98.72 268.822 100.32 272.902 100.32C276.982 100.32 280.102 98.72 282.262 95.52C284.502 92.24 285.622 87.84 285.622 82.32ZM371.593 111.84C368.553 112.72 364.633 113.52 359.833 114.24C355.033 115.04 349.993 115.44 344.713 115.44C339.353 115.44 334.873 114.72 331.273 113.28C327.753 111.84 324.953 109.84 322.873 107.28C320.793 104.64 319.313 101.52 318.433 97.92C317.553 94.32 317.113 90.36 317.113 86.04V50.88H334.993V83.88C334.993 89.64 335.753 93.8 337.273 96.36C338.793 98.92 341.633 100.2 345.793 100.2C347.073 100.2 348.433 100.16 349.873 100.08C351.313 99.92 352.593 99.76 353.713 99.6V50.88H371.593V111.84ZM428.817 82.92C428.817 77.4 427.577 73 425.097 69.72C422.617 66.36 418.937 64.68 414.057 64.68C412.457 64.68 410.977 64.76 409.617 64.92C408.257 65 407.137 65.12 406.257 65.28V97.56C407.377 98.28 408.817 98.88 410.577 99.36C412.417 99.84 414.257 100.08 416.097 100.08C424.577 100.08 428.817 94.36 428.817 82.92ZM447.057 82.44C447.057 87.32 446.457 91.76 445.257 95.76C444.057 99.76 442.297 103.2 439.977 106.08C437.657 108.96 434.777 111.2 431.337 112.8C427.897 114.4 423.937 115.2 419.457 115.2C416.977 115.2 414.657 114.96 412.497 114.48C410.337 114 408.257 113.32 406.257 112.44V136.2H388.377V53.04C389.977 52.56 391.817 52.12 393.897 51.72C395.977 51.24 398.137 50.84 400.377 50.52C402.697 50.2 405.017 49.96 407.337 49.8C409.737 49.56 412.017 49.44 414.177 49.44C419.377 49.44 424.017 50.24 428.097 51.84C432.177 53.36 435.617 55.56 438.417 58.44C441.217 61.24 443.337 64.68 444.777 68.76C446.297 72.84 447.057 77.4 447.057 82.44ZM501.238 82.92C501.238 77.4 499.998 73 497.518 69.72C495.038 66.36 491.358 64.68 486.478 64.68C484.878 64.68 483.398 64.76 482.038 64.92C480.678 65 479.558 65.12 478.678 65.28V97.56C479.798 98.28 481.238 98.88 482.998 99.36C484.838 99.84 486.678 100.08 488.518 100.08C496.998 100.08 501.238 94.36 501.238 82.92ZM519.478 82.44C519.478 87.32 518.878 91.76 517.678 95.76C516.478 99.76 514.718 103.2 512.398 106.08C510.078 108.96 507.198 111.2 503.758 112.8C500.318 114.4 496.358 115.2 491.878 115.2C489.398 115.2 487.078 114.96 484.918 114.48C482.758 114 480.678 113.32 478.678 112.44V136.2H460.798V53.04C462.398 52.56 464.238 52.12 466.318 51.72C468.398 51.24 470.558 50.84 472.798 50.52C475.118 50.2 477.438 49.96 479.758 49.8C482.158 49.56 484.438 49.44 486.598 49.44C491.798 49.44 496.438 50.24 500.518 51.84C504.598 53.36 508.038 55.56 510.838 58.44C513.638 61.24 515.758 64.68 517.198 68.76C518.718 72.84 519.478 77.4 519.478 82.44Z" fill="#00E6B0"/>
<path d="M84.4467 80.3838C74.6496 83.1358 62.3109 84.7573 49.7032 84.6516C21.8818 84.4184 8.87651 78.2101 8.87651 78.2101C3.58477 76.0684 0.569071 73.6948 0.569071 71.5335V61.6861C0.569071 61.5698 0.582539 61.456 0.600785 61.3436C2.32075 64.0788 6.57526 66.1287 10.4959 67.5141V73.7581C10.4959 74.6183 11.2251 75.3156 12.1251 75.3156C13.025 75.3156 13.7542 74.6183 13.7542 73.7581V68.5525C14.7372 68.8349 15.6273 69.0648 16.3609 69.2427V76.8212C16.3609 77.9682 17.3334 78.8979 18.5331 78.8979C19.7324 78.8979 20.7053 77.9682 20.7053 76.8212V70.1393C28.8422 71.6081 38.8625 72.4755 49.7032 72.4755C75.4657 72.4755 96.6088 67.582 98.8064 61.3436C98.8251 61.456 98.8379 61.57 98.8379 61.6861V71.7483C98.8377 74.6239 93.4577 77.8519 84.4467 80.3838Z" fill="#00E6B0"/>
<path d="M94.6274 107.058C84.8302 109.81 72.4916 111.432 59.8838 111.326C32.0625 111.093 19.0572 104.884 19.0572 104.884C13.7654 102.743 10.7497 100.369 10.7497 98.2079V88.3605C10.7497 88.2442 10.7632 88.1304 10.7814 88.018C12.5014 90.7532 16.7559 92.8031 20.6766 94.1885V100.432C20.6766 101.293 21.4058 101.99 22.3057 101.99C23.2057 101.99 23.9349 101.293 23.9349 100.432V95.2268C24.9178 95.5093 25.808 95.7391 26.5416 95.9171V103.496C26.5416 104.643 27.5141 105.572 28.7138 105.572C29.9131 105.572 30.886 104.643 30.886 103.496V96.8136C39.0229 98.2825 49.0431 99.1499 59.8838 99.1499C85.6463 99.1499 106.789 94.2564 108.987 88.018C109.006 88.1304 109.019 88.2444 109.019 88.3605V98.4227C109.018 101.298 103.638 104.526 94.6274 107.058Z" fill="#00E6B0"/>
<path d="M108.638 88.2006C106.918 90.9359 102.663 92.9858 98.7422 94.3711V100.615C98.7422 101.475 98.0132 102.172 97.113 102.172C96.2131 102.172 95.4838 101.475 95.4838 100.615V95.4095C94.5011 95.6917 93.611 95.9218 92.8772 96.0998V103.678C92.8772 104.825 91.9047 105.755 90.705 105.755C89.5057 105.755 88.5327 104.825 88.5327 103.678V96.9961C80.3958 98.4649 70.3756 99.3323 59.5349 99.3323C33.7724 99.3323 12.6293 94.4388 10.4319 88.2004C10.4132 88.3128 10.4004 88.4268 10.4004 88.5429V98.6051C10.4004 101.481 15.7805 104.709 24.7913 107.241C34.5885 109.993 46.9271 111.614 59.5349 111.509C87.3561 111.275 100.361 105.067 100.361 105.067C105.653 102.925 108.669 100.552 108.669 98.3906V88.5431C108.669 88.427 108.656 88.313 108.638 88.2006Z" fill="#00E6B0"/>
<path d="M98.7967 61.8631C97.0767 64.5983 92.8222 66.6482 88.9014 68.0336V74.2774C88.9014 75.1378 88.1724 75.8349 87.2722 75.8349C86.3722 75.8349 85.643 75.1378 85.643 74.2774V69.0719C84.6603 69.3542 83.7701 69.5843 83.0364 69.7622V77.3405C83.0364 78.4875 82.0639 79.4172 80.8642 79.4172C79.6649 79.4172 78.6919 78.4875 78.6919 77.3405V70.6585C70.555 72.1274 60.5348 72.9948 49.6941 72.9948C23.9316 72.9948 2.78848 68.1013 0.591067 61.8629C0.572386 61.9753 0.55957 62.0893 0.55957 62.2054V72.2676C0.55957 75.1434 5.93972 78.3716 14.9505 80.9033C24.7477 83.6553 37.0863 85.2766 49.6941 85.1711C77.5152 84.9379 90.5205 78.7294 90.5205 78.7294C95.8123 76.5877 98.828 74.214 98.828 72.053V62.2056C98.8286 62.0895 98.8154 61.9755 98.7967 61.8631Z" fill="#00E6B0"/>
<path d="M98.2371 114.444C96.5171 117.179 92.2626 119.229 88.3418 120.614V126.858C88.3418 127.719 87.6128 128.416 86.7126 128.416C85.8127 128.416 85.0834 127.719 85.0834 126.858V121.653C84.1007 121.935 83.2106 122.165 82.4768 122.343V129.921C82.4768 131.068 81.5043 131.998 80.3046 131.998C79.1053 131.998 78.1323 131.068 78.1323 129.921V123.239C69.9954 124.708 59.9752 125.576 49.1345 125.576C23.372 125.576 2.22891 120.682 0.0314965 114.444C0.0128154 114.556 0 114.67 0 114.786V124.848C0 127.724 5.38015 130.952 14.391 133.484C24.1881 136.236 36.5267 137.857 49.1345 137.752C76.9557 137.519 89.9605 131.311 89.9609 131.31C95.2527 129.169 98.2684 126.795 98.2684 124.634V114.786C98.269 114.67 98.2558 114.556 98.2371 114.444Z" fill="#00E6B0"/>
<path d="M49.1341 125.637C38.2934 125.637 28.2732 124.769 20.1363 123.301V129.983C20.1363 131.13 19.1633 132.059 17.964 132.059C16.7643 132.059 15.7918 131.13 15.7918 129.983V122.404C15.0583 122.226 14.1681 121.996 13.1852 121.714V126.919C13.1852 127.78 12.4559 128.477 11.556 128.477C10.656 128.477 9.92683 127.78 9.92683 126.919V120.676C6.00619 119.29 1.75168 117.24 0.0317144 114.505C0.0130333 114.617 0 114.731 0 114.847V124.695C0 126.856 3.01569 129.23 8.30744 131.371C8.30787 131.372 21.3127 137.58 49.1341 137.813C61.7421 137.919 74.0807 136.297 83.8777 133.545C92.8885 131.013 98.2686 127.785 98.2686 124.909V114.848C98.2686 114.731 98.2558 114.618 98.2371 114.505C96.0395 120.743 74.8964 125.637 49.1341 125.637Z" fill="#00E6B0"/>
<path d="M51.8824 89.2907C39.2792 89.6145 26.9358 87.775 17.1393 85.0229C14.6897 84.3347 12.5105 83.5946 10.6328 82.8245C11.5951 89.32 33.1598 94.5128 59.6261 94.5128C86.7048 94.5128 108.656 89.077 108.656 82.3716C108.656 79.9764 105.854 77.7431 101.017 75.8614V76.1725C101.017 78.4425 97.6923 80.947 91.896 83.1707C91.8958 83.1709 79.1424 88.5909 51.8824 89.2907Z" fill="#00E6B0"/>
<path d="M49.259 120.839C75.7253 120.839 97.29 115.646 98.2523 109.151C96.3742 109.921 94.1953 110.661 91.7463 111.349C81.9487 114.101 69.6062 115.94 57.0027 115.617C29.7427 114.917 16.9898 109.497 16.9898 109.497C11.193 107.273 7.86821 104.768 7.86821 102.499V102.188C3.03198 104.069 0.228516 106.302 0.228516 108.698C0.228298 115.403 22.1799 120.839 49.259 120.839Z" fill="#00E6B0"/>
<path d="M48.9458 67.9229C75.7508 67.9229 97.4805 62.5825 97.4805 55.9949C97.4805 49.4072 75.7508 44.0668 48.9458 44.0668C22.1409 44.0668 0.411133 49.4072 0.411133 55.9949C0.411133 62.5825 22.1409 67.9229 48.9458 67.9229Z" fill="#00E6B0"/>
<rect x="132.442" y="30.9049" width="8.22622" height="117.224" rx="4.11311" fill="#00E6B0"/>
</svg>
