<svg width="307" height="357" viewBox="0 0 307 357" fill="none" xmlns="http://www.w3.org/2000/svg">
<path d="M139.5 302C162.972 302 182 282.972 182 259.5C182 236.028 162.972 217 139.5 217C116.028 217 97 236.028 97 259.5C97 282.972 116.028 302 139.5 302Z" fill="#3F3D56"/>
<path opacity="0.1" d="M139.5 296C159.658 296 176 279.658 176 259.5C176 239.342 159.658 223 139.5 223C119.342 223 103 239.342 103 259.5C103 279.658 119.342 296 139.5 296Z" fill="black"/>
<path d="M137.954 281V275.71C135.318 275.658 132.591 274.715 131 273.406L132.091 269.897C133.981 271.334 136.274 272.122 138.636 272.148C141.864 272.148 144.045 270.001 144.045 267.016C144.045 264.135 142.273 262.355 138.909 260.783C134.273 258.688 131.409 256.279 131.409 251.722C131.409 247.375 134.091 244.075 138.273 243.29V238H141.091V243.08C143.192 243.11 145.242 243.745 147 244.913L145.863 248.37C144.177 247.2 142.179 246.578 140.136 246.589C136.636 246.589 135.318 248.999 135.318 251.094C135.318 253.817 137 255.179 140.955 257.065C145.636 259.264 148 261.988 148 266.649C148 270.787 145.5 274.663 140.818 275.553V281H137.954Z" fill="#00E6B0"/>
<path d="M19.268 183H8.73202C8.27281 182.999 7.83257 182.813 7.50786 182.481C7.18316 182.15 7.00051 181.7 7 181.232V165.768C7.00051 165.3 7.18316 164.85 7.50786 164.519C7.83257 164.187 8.27281 164.001 8.73202 164H19.268C19.7272 164.001 20.1674 164.187 20.4921 164.519C20.8168 164.85 20.9995 165.3 21 165.768V181.232C20.9995 181.7 20.8168 182.15 20.4921 182.481C20.1674 182.813 19.7272 182.999 19.268 183ZM8.73202 164.847C8.49289 164.848 8.26363 164.945 8.09454 165.118C7.92545 165.29 7.83033 165.524 7.83004 165.768V181.232C7.83033 181.476 7.92545 181.71 8.09454 181.882C8.26363 182.055 8.49289 182.152 8.73202 182.153H19.268C19.5071 182.152 19.7364 182.055 19.9055 181.882C20.0745 181.71 20.1697 181.476 20.17 181.232V165.768C20.1697 165.524 20.0745 165.29 19.9055 165.118C19.7364 164.945 19.5071 164.848 19.268 164.847H8.73202Z" fill="#3F3D56"/>
<path d="M38.7573 183H29.2427C28.6481 182.999 28.0781 182.757 27.6576 182.325C27.2372 181.893 27.0007 181.308 27 180.698V149.302C27.0007 148.692 27.2372 148.107 27.6576 147.675C28.0781 147.243 28.6481 147.001 29.2427 147H38.7573C39.3519 147.001 39.9219 147.243 40.3424 147.675C40.7628 148.107 40.9993 148.692 41 149.302V180.698C40.9993 181.308 40.7628 181.893 40.3424 182.325C39.9219 182.757 39.3519 182.999 38.7573 183ZM29.2427 147.852C28.8682 147.852 28.5091 148.005 28.2442 148.277C27.9794 148.549 27.8304 148.918 27.83 149.302V180.698C27.8304 181.082 27.9794 181.451 28.2442 181.723C28.5091 181.995 28.8682 182.148 29.2427 182.148H38.7573C39.1318 182.148 39.4909 181.995 39.7558 181.723C40.0206 181.451 40.1696 181.082 40.17 180.698V149.302C40.1696 148.918 40.0206 148.549 39.7558 148.277C39.4909 148.005 39.1318 147.852 38.7573 147.852L29.2427 147.852Z" fill="#3F3D56"/>
<path d="M59.2035 183H49.7965C49.0551 182.999 48.3443 182.714 47.82 182.207C47.2957 181.701 47.0008 181.014 47 180.297V133.703C47.0008 132.986 47.2957 132.299 47.82 131.793C48.3443 131.286 49.0551 131.001 49.7965 131H59.2035C59.9449 131.001 60.6557 131.286 61.18 131.793C61.7043 132.299 61.9992 132.986 62 133.703V180.297C61.9992 181.014 61.7043 181.701 61.18 182.207C60.6557 182.714 59.9449 182.999 59.2035 183ZM49.7965 131.86C49.2909 131.86 48.8061 132.054 48.4486 132.4C48.091 132.746 47.8899 133.214 47.8893 133.703V180.297C47.8899 180.786 48.091 181.254 48.4486 181.6C48.8061 181.946 49.2909 182.14 49.7965 182.14H59.2035C59.7091 182.14 60.1939 181.946 60.5514 181.6C60.909 181.254 61.1101 180.786 61.1107 180.297V133.703C61.1101 133.214 60.909 132.746 60.5514 132.4C60.1939 132.054 59.7091 131.86 59.2035 131.86H49.7965Z" fill="#3F3D56"/>
<path d="M18 167H10V180H18V167Z" fill="#33404F"/>
<path d="M38 150H30V180H38V150Z" fill="#33404F"/>
<path d="M58 134H50V180H58V134Z" fill="#33404F"/>
<path d="M67.575 188H0.425C0.369184 188 0.313914 187.989 0.262344 187.968C0.210774 187.947 0.163915 187.916 0.124447 187.877C0.0849791 187.837 0.0536743 187.791 0.0323212 187.74C0.0109681 187.689 -1.45034e-05 187.634 1.43744e-08 187.579V121.421C1.43744e-08 121.31 0.0447764 121.202 0.124479 121.123C0.204182 121.044 0.312283 121 0.425 121C0.537717 121 0.645818 121.044 0.725521 121.123C0.805224 121.202 0.85 121.31 0.85 121.421V187.157H67.575C67.6877 187.157 67.7958 187.202 67.8755 187.281C67.9552 187.36 68 187.467 68 187.579C68 187.69 67.9552 187.798 67.8755 187.877C67.7958 187.956 67.6877 188 67.575 188Z" fill="#3F3D56"/>
<path d="M238.487 346.249H248.976L253.967 305.768L238.484 305.768L238.487 346.249Z" fill="#FFB8B8"/>
<path d="M235.811 342.823L256.468 342.822H256.469C259.96 342.822 263.309 344.21 265.778 346.68C268.246 349.15 269.633 352.5 269.634 355.993V356.421L235.811 356.423L235.811 342.823Z" fill="#2F2E41"/>
<path d="M212.361 306.506L220.102 313.589L251.091 287.087L239.666 276.633L212.361 306.506Z" fill="#FFB8B8"/>
<path d="M212.699 302.17L227.943 316.119L227.943 316.12C230.52 318.477 232.054 321.762 232.21 325.252C232.365 328.742 231.129 332.151 228.773 334.728L228.484 335.044L203.525 312.206L212.699 302.17Z" fill="#2F2E41"/>
<path d="M254.973 204.091L252 263.582L259.433 328.279L237.135 331.254L223.014 249.453L218.554 193.679L254.973 204.091Z" fill="#2F2E41"/>
<path d="M289.905 182.525C289.905 182.525 298.825 241.273 280.243 260.607C261.662 279.942 236.392 314.15 236.392 314.15L218.554 291.84L263.892 243.504L254.973 210.783L218.554 193.68L224.5 152.779L278.013 152.036L289.905 182.525Z" fill="#2F2E41"/>
<path d="M248.978 46.4383C259.031 46.4383 267.181 38.2843 267.181 28.2257C267.181 18.1672 259.031 10.0132 248.978 10.0132C238.925 10.0132 230.775 18.1672 230.775 28.2257C230.775 38.2843 238.925 46.4383 248.978 46.4383Z" fill="#FFB8B8"/>
<path d="M264.076 54.1104L266.864 58.3368L274.297 79.1589L268.351 160.215L233.418 160.96L228.959 68.004L238.301 56.3208L264.076 54.1104Z" fill="#CCCCCC"/>
<path d="M214.838 70.2349L208.892 69.4912C208.892 69.4912 207.405 70.2349 206.662 75.4403C205.919 80.6458 197 126.752 197 126.752L208.892 183.268L222.27 165.421L214.095 134.188L222.27 102.955L214.838 70.2349Z" fill="#2F2E41"/>
<path d="M290.649 69.4917H295.108L306.257 129.726L295.851 176.576L285.446 159.472L288.419 140.881L286.932 124.521L281.729 114.853L290.649 69.4917Z" fill="#2F2E41"/>
<path d="M259.735 28.2258L256.425 27.3979C256.425 27.3979 253.943 13.3246 248.151 14.9803C242.359 16.636 227.466 18.2917 227.466 11.6689C227.466 5.04613 241.532 -0.748757 249.806 0.0790867C258.08 0.906931 268.647 3.65328 271.318 15.8081C275.6 35.2929 262.483 40.2144 262.483 40.2144L262.701 39.505C263.308 37.5352 263.351 35.435 262.827 33.4418C262.302 31.4486 261.231 29.6419 259.735 28.2258Z" fill="#2F2E41"/>
<path d="M209.635 69.4913L233.419 59.8239L238.993 55.7339L255.716 129.726L266.865 96.2624L263.52 53.5029L294.365 69.4912L283.959 120.059L282.473 139.394L286.932 155.01C286.932 155.01 302.54 166.165 297.338 178.063C292.135 189.961 286.189 190.705 286.189 190.705C286.189 190.705 260.919 166.908 259.432 160.959C257.946 155.01 255.716 144.599 255.716 144.599C255.716 144.599 243.081 192.192 228.216 191.449C213.351 190.705 213.351 175.088 213.351 175.088L217.067 158.728L223.013 141.625L220.04 113.366L209.635 69.4913Z" fill="#2F2E41"/>
</svg>
