<svg width="150" height="185" viewBox="0 0 150 185" fill="none" xmlns="http://www.w3.org/2000/svg">
<path d="M110.058 174L110 180.678L123.017 180.789L123.074 174.111L110.058 174Z" fill="#8ED16F"/>
<path opacity="0.1" d="M119.385 177.09C119.379 176.334 118.148 175.73 116.634 175.741C115.12 175.751 113.897 176.372 113.903 177.128C113.908 177.884 115.139 178.488 116.653 178.478C118.167 178.467 119.39 177.846 119.385 177.09Z" fill="black"/>
<path d="M100.094 93.9409L96.2861 99.4276L106.981 106.848L110.789 101.362L100.094 93.9409Z" fill="#8ED16F"/>
<path opacity="0.1" d="M106.062 101.746C106.483 101.119 105.806 99.926 104.549 99.0824C103.292 98.2387 101.931 98.0636 101.51 98.6912C101.089 99.3189 101.766 100.512 103.023 101.355C104.28 102.199 105.641 102.374 106.062 101.746Z" fill="black"/>
<path d="M114.624 119L109 122.601L116.02 133.563L121.645 129.962L114.624 119Z" fill="#8ED16F"/>
<path opacity="0.1" d="M117.134 128.5C117.764 128.083 117.597 126.721 116.761 125.459C115.925 124.197 114.736 123.512 114.106 123.93C113.476 124.347 113.643 125.709 114.479 126.971C115.315 128.233 116.504 128.917 117.134 128.5Z" fill="black"/>
<path d="M111.555 142.071L105.184 144.075L109.09 156.492L115.461 154.489L111.555 142.071Z" fill="#8ED16F"/>
<path opacity="0.1" d="M111.49 151.897C112.207 151.659 112.403 150.301 111.926 148.864C111.449 147.427 110.481 146.455 109.764 146.693C109.046 146.931 108.851 148.289 109.328 149.726C109.804 151.163 110.772 152.135 111.49 151.897Z" fill="black"/>
<path d="M24.0575 175L24 181.678L37.0169 181.789L37.0744 175.111L24.0575 175Z" fill="#8ED16F"/>
<path opacity="0.1" d="M33.3847 178.09C33.3794 177.334 32.148 176.73 30.6342 176.741C29.1204 176.751 27.8975 177.372 27.9027 178.128C27.9079 178.884 29.1393 179.488 30.6531 179.478C32.1669 179.467 33.3899 178.846 33.3847 178.09Z" fill="black"/>
<path d="M121.058 176L121 182.678L134.017 182.789L134.074 176.111L121.058 176Z" fill="#8ED16F"/>
<path opacity="0.1" d="M130.385 179.09C130.379 178.334 129.148 177.73 127.634 177.741C126.12 177.751 124.897 178.372 124.903 179.128C124.908 179.884 126.139 180.488 127.653 180.478C129.167 180.467 130.39 179.846 130.385 179.09Z" fill="black"/>
<path d="M138.549 172L135.37 177.874L146.819 184.068L149.998 178.195L138.549 172Z" fill="#8ED16F"/>
<path opacity="0.1" d="M145.054 179.414C145.414 178.749 144.626 177.626 143.295 176.905C141.963 176.185 140.592 176.14 140.232 176.805C139.873 177.47 140.66 178.592 141.992 179.313C143.323 180.033 144.694 180.078 145.054 179.414Z" fill="black"/>
<path d="M15.4134 171.603L13.0439 177.848L25.2148 182.465L27.5843 176.221L15.4134 171.603Z" fill="#8ED16F"/>
<path opacity="0.1" d="M22.8466 178.086C23.1148 177.379 22.1848 176.371 20.7693 175.834C19.3539 175.297 17.9891 175.435 17.7209 176.142C17.4528 176.848 18.3828 177.857 19.7982 178.394C21.2136 178.931 22.5784 178.793 22.8466 178.086Z" fill="black"/>
<path opacity="0.05" d="M130.218 174.264L129 180.83L141.799 183.204L143.018 176.638L130.218 174.264Z" fill="black"/>
<path d="M85.9999 88.1193C86.0053 87.1442 85.8042 86.1789 85.4097 85.2868C85.0152 84.3946 84.4363 83.5957 83.7108 82.9423C82.9853 82.2889 82.1296 81.7959 81.1998 81.4954C80.27 81.195 79.2871 81.094 78.3154 81.1989C78.008 81.2337 77.7034 81.2897 77.4037 81.3666L53.9252 61.2872L55.3282 53.7418L43.7561 50L40.267 62.0919C39.8542 63.5431 39.9215 65.0885 40.4587 66.4986C40.996 67.9086 41.9745 69.1083 43.2492 69.9196L72.1319 88.1461C72.1321 88.3728 72.1439 88.5993 72.1674 88.8248C72.2729 89.7943 72.5825 90.7307 73.0759 91.5725C73.5694 92.4143 74.2355 93.1426 75.0307 93.7096C75.826 94.2767 76.7323 94.6697 77.6904 94.8628C78.6484 95.056 79.6366 95.045 80.5901 94.8306C80.8673 94.7693 81.1403 94.6907 81.4075 94.5951C82.7443 94.1129 83.901 93.2338 84.722 92.0761C85.543 90.9183 85.989 89.5375 85.9999 88.1193Z" fill="#9F616A"/>
<path d="M27.8261 112H57.8844C57.8844 112.869 88.8631 113.574 88.8631 113.574C89.3493 113.942 89.7925 114.365 90.1841 114.833C91.3607 116.245 92.0039 118.029 92 119.87V121.13C91.9992 123.217 91.1744 125.218 89.7069 126.694C88.2394 128.17 86.2493 128.999 84.1739 129H27.8261C25.751 128.998 23.7615 128.168 22.2942 126.693C20.8269 125.217 20.0018 123.216 20 121.13V119.87C20.0029 117.784 20.8283 115.784 22.2954 114.308C23.7624 112.833 25.7514 112.003 27.8261 112Z" fill="#3F3D56"/>
<path d="M60 129H52V181H60V129Z" fill="#3F3D56"/>
<path d="M84 182.397C84 183.449 71.464 182.804 56 182.804C40.536 182.804 28 183.449 28 182.397C28 181.345 40.536 173 56 173C71.464 173 84 181.345 84 182.397Z" fill="#3F3D56"/>
<path d="M76.0016 175L84.1318 174.999L88 155L76 155.001L76.0016 175Z" fill="#9F616A"/>
<path d="M74.0005 182L99 181.999V181.684C99 180.413 98.7484 179.153 98.2594 177.978C97.7704 176.803 97.0537 175.736 96.1501 174.837C95.2466 173.937 94.174 173.224 92.9934 172.737C91.8129 172.251 90.5476 172 89.2698 172H89.2688L74 172.001L74.0005 182Z" fill="#2F2E41"/>
<path d="M87.5808 162.318L102.925 127.76C104.206 124.847 104.347 121.556 103.321 118.543C102.295 115.53 100.177 113.016 97.3884 111.501L64.1068 93.5764L48.9197 92.279L34.9107 91L34.8097 91.1718C34.6805 91.391 31.6684 96.6164 33.7044 102.346C35.2488 106.692 39.266 110.087 45.6444 112.436C60.5321 117.919 77.7304 122.605 84.4336 124.365C84.7298 124.441 85.0067 124.579 85.2459 124.77C85.4852 124.962 85.6814 125.202 85.8217 125.474C85.9624 125.744 86.046 126.04 86.0672 126.344C86.0884 126.648 86.0468 126.952 85.945 127.239L71.6899 159.406C71.541 159.814 71.4874 160.251 71.5332 160.683C71.579 161.115 71.723 161.531 71.9541 161.898C72.1852 162.266 72.4972 162.575 72.866 162.802C73.2348 163.029 73.6506 163.168 74.0814 163.208L84.7329 163.987C84.8234 163.996 84.9134 164 85.003 164C85.5485 164 86.0823 163.841 86.5398 163.542C86.9972 163.244 87.3588 162.819 87.5808 162.318Z" fill="#CBCBCB"/>
<path d="M71.0012 175L79.1314 174.999L83 155L71 155.001L71.0012 175Z" fill="#9F616A"/>
<path d="M69.0005 182L94 181.999V181.684C94 180.413 93.7484 179.153 93.2594 177.978C92.7704 176.803 92.0537 175.736 91.1502 174.837C90.2466 173.937 89.174 173.224 87.9934 172.737C86.8129 172.251 85.5476 172 84.2698 172H84.2688L69 172.001L69.0005 182Z" fill="#2F2E41"/>
<path d="M82.5472 164.314L97.9225 129.674C99.2062 126.754 99.3481 123.456 98.3201 120.436C97.292 117.416 95.1693 114.896 92.3749 113.378L59.0251 95.4103L43.8069 94.1098L32.8119 93.1515L32.8134 93C32.6839 93.2197 29.6657 98.4575 31.7059 104.201C33.2534 108.557 34.1334 111.96 40.5249 114.314C55.4431 119.81 72.6766 124.507 79.3935 126.271C79.6903 126.348 79.9677 126.486 80.2075 126.678C80.4472 126.87 80.6439 127.11 80.7845 127.384C80.9255 127.654 81.0092 127.951 81.0305 128.255C81.0517 128.559 81.01 128.865 80.908 129.152L66.6238 161.396C66.4746 161.804 66.4209 162.242 66.4668 162.675C66.5127 163.108 66.6569 163.525 66.8885 163.893C67.12 164.262 67.4326 164.571 67.8022 164.799C68.1718 165.027 68.5885 165.166 69.0201 165.206L79.6935 165.987C79.7841 165.996 79.8743 166 79.9641 166C80.5107 166 81.0456 165.84 81.504 165.541C81.9624 165.242 82.3248 164.816 82.5472 164.314Z" fill="#CBCBCB"/>
<path d="M53.0382 94.5924C53.7615 94.0666 64.1483 99.6671 66 95.2268C57.3588 73.0254 63.3135 63.4384 58.0204 50.7069C57.0881 48.511 55.6836 46.5609 53.9125 45.003C52.1414 43.4451 50.0498 42.3201 47.7948 41.7124L34.0619 41L33.9907 41.0353C30.8918 42.5952 28.3645 45.1399 26.7836 48.2922C25.2027 51.4444 24.6524 55.0363 25.2142 58.5353C25.2631 72.391 33.3298 82.9587 30.5092 93.0085C30.3909 93.4287 30.3564 93.869 30.4077 94.3032C30.459 94.7374 30.5951 95.1565 30.8078 95.5353C31.0141 95.9015 31.2911 96.2203 31.6218 96.4722C31.9526 96.7241 32.33 96.9037 32.7309 97L50.8641 94.5141C51.2877 94.6177 51.7279 94.6273 52.1554 94.5422C52.5829 94.4572 52.9878 94.2795 53.3433 94.021L53.0382 94.5924Z" fill="#2F2E41"/>
<path d="M38.5 36C47.0604 36 54 29.0604 54 20.5C54 11.9396 47.0604 5 38.5 5C29.9396 5 23 11.9396 23 20.5C23 29.0604 29.9396 36 38.5 36Z" fill="#9F616A"/>
<path d="M33.9096 33.9859C34.7308 34.3408 36.4125 27.8787 35.6592 26.5862C34.5389 24.6641 34.6051 24.6779 33.8614 23.4062C33.1177 22.1345 32.9513 20.3939 33.9144 19.275C34.8775 18.1561 37.1061 18.3045 37.5457 19.7074C37.2629 17.0427 39.9319 14.9007 42.5756 14.2988C45.2194 13.6968 48.008 14.0706 50.6663 13.5349C53.7514 12.9132 56.9613 10.3594 55.7304 7.00916C55.5192 6.45137 55.203 5.93811 54.7984 5.49648C53.3762 3.91738 51.3869 3.24311 49.4418 2.59114C45.3954 1.23483 41.2382 -0.138508 36.9678 0.0112311C29.951 0.257231 23.3185 5.04729 20.9545 11.5761C20.6602 12.3907 20.4322 13.2272 20.2726 14.0777C18.8069 21.8609 23.3837 29.5382 30.8173 32.5021L33.9096 33.9859Z" fill="#2F2E41"/>
<path d="M36.1705 73L54 67.2903L49.841 55.6547C49.2887 54.1097 48.1936 52.8046 46.7494 51.9701C45.3051 51.1356 43.6045 50.8254 41.9482 51.0944C40.2728 51.3665 38.7524 52.2133 37.6616 53.482C36.5709 54.7508 35.9817 56.3577 36.0004 58.0126L36.1705 73Z" fill="#2F2E41"/>
<path d="M147.614 183H0.386423C0.283937 183 0.185649 182.947 0.11318 182.854C0.040712 182.76 0 182.633 0 182.5C0 182.367 0.040712 182.24 0.11318 182.146C0.185649 182.053 0.283937 182 0.386423 182H147.614C147.716 182 147.814 182.053 147.887 182.146C147.959 182.24 148 182.367 148 182.5C148 182.633 147.959 182.76 147.887 182.854C147.814 182.947 147.716 183 147.614 183Z" fill="#CBCBCB"/>
<path d="M98.1949 69.2668L99.9909 74.4651C100.011 74.5231 99.9978 74.5826 99.953 74.6372L85.8628 91.7989C85.807 91.8669 85.7051 91.9234 85.574 91.9592C85.443 91.995 85.2908 92.0078 85.1427 91.9954C84.9947 91.9831 84.8598 91.9464 84.7606 91.8914C84.6614 91.8365 84.6038 91.7666 84.5975 91.6935L84.0006 84.797C83.9966 84.7512 84.0129 84.7055 84.0483 84.6631L96.9394 69.1995C96.9932 69.135 97.0887 69.0808 97.2114 69.0451C97.3341 69.0095 97.4773 68.9943 97.6193 69.0019C97.7613 69.0095 97.8944 69.0395 97.9983 69.0873C98.1021 69.1351 98.1712 69.1982 98.1949 69.2668Z" fill="#3F3D56"/>
<path d="M97.3087 70L99 74.216L86.6088 89L85 84.2443L97.3087 70Z" fill="#30269A"/>
<path d="M51.0575 176L51 182.678L64.0169 182.789L64.0744 176.111L51.0575 176Z" fill="#8ED16F"/>
<path opacity="0.1" d="M60.3847 179.09C60.3794 178.334 59.148 177.73 57.6342 177.741C56.1204 177.751 54.8975 178.372 54.9027 179.128C54.9079 179.884 56.1393 180.488 57.6531 180.478C59.1669 180.467 60.3899 179.846 60.3847 179.09Z" fill="black"/>
<path d="M43.8451 86.0907L77.6186 92.5628C77.7031 92.7799 77.7984 92.9925 77.9041 93.1997C78.3631 94.0862 78.9985 94.8637 79.7691 95.4815C80.5398 96.0994 81.4284 96.5439 82.3773 96.7861C83.3299 97.0321 84.3228 97.0664 85.2894 96.8865C86.256 96.7067 87.174 96.317 87.9821 95.7434C89.4457 94.7115 90.4696 93.1438 90.8438 91.3617C91.218 89.5796 90.9141 87.718 89.9945 86.1585C89.075 84.599 87.6093 83.4598 85.898 82.9743C84.1866 82.4889 82.3593 82.694 80.7905 83.5476C80.5173 83.6981 80.2545 83.868 80.0042 84.056L50.6694 73.7659L49.168 66L37 66.8267L38.2608 79.845C38.4138 81.3643 39.0397 82.7924 40.0456 83.9175C41.0516 85.0426 42.384 85.8047 43.8451 86.0907Z" fill="#9F616A"/>
<path d="M88.0989 122.793L82.0459 119.971L76.5463 131.77L82.5994 134.592L88.0989 122.793Z" fill="#8ED16F"/>
<path opacity="0.1" d="M81.4187 129.999C82.1087 130.308 83.1692 129.438 83.7874 128.056C84.4056 126.674 84.3475 125.304 83.6575 124.995C82.9675 124.686 81.907 125.556 81.2888 126.938C80.6706 128.32 80.7288 129.69 81.4187 129.999Z" fill="black"/>
</svg>
