<svg width="186" height="215" viewBox="0 0 186 215" fill="none" xmlns="http://www.w3.org/2000/svg">
<path d="M102.063 27.7663C102.34 28.6468 102.928 29.3947 103.716 29.8686C107.275 32.2318 115.011 31.7296 115.94 31.7296C116.138 31.7296 116.397 32.0838 116.684 32.6795C118.051 35.5137 120.169 43.8216 120.312 45.6903C120.502 47.9522 122.593 58.5376 126.016 62.4814C126.12 62.6021 126.225 62.715 126.325 62.8201C129.683 66.211 133.62 62.4814 133.62 62.4814L134.186 60.5076C134.027 61.2862 133.849 62.1933 133.671 63.2094C133.582 63.7194 133.493 64.2605 133.407 64.8173C132.897 67.9543 132.629 71.1263 132.606 74.3048C132.597 75.4589 132.646 76.6128 132.753 77.7619C132.784 78.0812 132.819 78.3965 132.862 78.7041C133.036 80.1038 133.122 81.5134 133.117 82.9242C133.086 91.3022 130.96 101.724 130.96 101.724L131.042 101.697C130.991 101.958 130.96 102.086 130.96 102.086L131.084 102.047C131.025 102.434 130.968 102.83 130.914 103.235C130.194 108.49 129.779 115.031 129.582 118.807C129.48 120.799 129.568 122.796 129.845 124.771L133.624 151.521V163.979C133.612 165.867 133.841 167.749 134.306 169.578C135.537 174.284 134.523 190.713 133.953 198.507C133.795 200.633 133.671 202.12 133.636 202.548V202.677L133.744 202.634C133.744 202.724 133.744 202.77 133.744 202.77C133.906 202.701 134.075 202.651 134.248 202.622C132.749 204.958 130.035 208.82 127.948 209.47C126.718 209.847 125.624 210.576 124.8 211.569L124.746 211.643L124.668 211.752C124.41 212.099 124.253 212.511 124.215 212.943C124.185 212.869 124.162 212.792 124.145 212.713C123.987 213.582 124.506 214.376 126.136 214.761C127.086 214.944 128.053 215.022 129.02 214.995C134.674 214.995 144.706 213.247 145.814 211.366V204.88L145.996 204.939V204.997L146.689 205.227L148.59 198.811C150.871 197.114 148.977 166.736 148.59 159.755C148.241 153.394 152.156 128.088 152.849 123.631L152.756 123.518L152.861 122.868C153 122.969 153.13 123.084 153.248 123.21C153.476 123.482 153.674 123.777 153.841 124.09C154.168 124.647 154.449 125.231 154.681 125.834C158.506 135.427 160.229 162.858 160.229 165.318V191.114C160.222 193.66 160.574 196.194 161.275 198.64C161.626 199.927 161.898 201.235 162.088 202.556C162.169 203.074 162.239 203.588 162.305 204.078C162.371 204.569 162.437 205.13 162.487 205.589C162.487 205.71 162.514 205.826 162.526 205.935C162.537 206.044 162.526 206.041 162.526 206.095C162.63 207.111 162.684 207.777 162.684 207.777C162.699 207.721 162.725 207.669 162.762 207.625L162.781 207.87C162.808 207.777 162.861 207.694 162.932 207.629C163.09 207.474 163.261 207.333 163.443 207.209V210.487L163.35 210.416V210.981C167.292 213.971 173.708 214.874 178.634 214.839C181.828 214.839 184.415 214.45 185.313 213.998C186.598 213.364 185.894 211.884 184.724 210.751C183.818 209.871 182.637 209.194 181.89 209.28C180.643 209.416 176.38 204.561 174.146 201.902L174.398 201.789L174.754 201.634V158.622C174.754 158.622 175.327 141.64 177.034 124.845C177.845 116.379 176.848 107.837 174.111 99.7893L174.057 99.6296L174.576 99.7114C175.125 99.797 175.42 99.8477 175.42 99.8477C175.42 99.8477 175.42 99.7153 175.385 99.4583H175.42C175.42 99.4583 174.754 92.1743 174.746 83.0254C174.746 72.6541 175.617 60.0093 179.222 52.8537C181.298 48.7347 181.991 45.4567 181.933 42.8717C182.023 40.5971 181.372 38.355 180.078 36.487C179.535 35.735 178.797 35.1477 177.944 34.7896L177.871 34.7467H177.832C177.209 34.4934 176.544 34.3613 175.873 34.3574H168.086C167.185 34.3582 166.299 34.1234 165.515 33.6761L162.468 31.9398C161.453 29.709 161.306 26.9449 161.523 24.3521C161.523 24.1457 161.561 23.9394 161.581 23.737L161.802 23.5034C161.972 23.3204 162.131 23.1141 162.286 22.9389C162.282 23.0925 162.27 23.2459 162.251 23.3983C162.212 23.6435 162.146 23.7876 162.042 23.8187C163.707 23.6007 165.565 23.2698 166.587 21.9773C166.63 21.9267 166.669 21.8721 166.708 21.8176C167.01 21.326 167.26 20.8041 167.455 20.2604C167.598 19.8889 167.789 19.5381 168.024 19.217C168.28 18.8822 168.613 18.6097 168.887 18.2905L168.934 18.236C169.914 17.068 169.968 15.394 169.979 13.8679C169.999 10.1616 169.89 6.08161 167.424 3.30191C165.376 0.989391 162.107 0.113438 159.006 0.0122162C155.904 -0.0890051 152.811 0.471606 149.713 0.487179C147.606 0.487179 145.066 0.452142 143.905 2.20405C143.336 3.06443 143.266 4.18955 142.646 5.01489C142.29 5.48985 141.744 5.89863 141.713 6.49039C141.709 6.76343 141.779 7.03247 141.914 7.26901V7.29627C142.666 8.78344 144.261 9.71001 145.926 10.002C145.645 10.3426 145.386 10.7016 145.152 11.0765C144.135 12.7104 143.598 14.5997 143.603 16.5269C143.603 16.7527 143.603 16.9746 143.626 17.1965C143.799 19.8141 144.959 22.2665 146.871 24.0523C146.84 24.2703 146.809 24.4883 146.774 24.7025L146.844 24.7647C147.063 24.9646 147.292 25.1541 147.529 25.3331L147.614 25.3993C147.614 25.5356 147.614 25.6718 147.614 25.7886C147.614 26.0144 147.614 26.2441 147.591 26.466C147.568 26.688 147.591 26.8242 147.568 27.0033L147.517 26.9605L143.734 23.7837L137.651 18.1231C137.651 18.1231 122.442 6.9926 121.679 12.2834C121.587 13.223 121.845 14.1636 122.403 14.9229C125.195 19.2054 134.794 22.8493 134.794 22.8493C134.794 22.8493 140.517 28.9343 144.346 35.4942C144.211 35.5682 144.075 35.6383 143.932 35.7044C140.524 37.2967 135.553 36.6232 135.553 36.6232C129.81 37.5225 129.291 43.8489 129.322 46.4067C129.322 46.5273 129.322 46.6441 129.322 46.7493C129.322 46.8544 129.322 46.8777 129.322 46.9361L121.702 28.946L121.679 28.8915C121.43 28.3058 121.039 27.7925 120.541 27.3992C120.043 27.0059 119.454 26.7452 118.829 26.6412C113.733 25.7808 100.998 23.9861 102.063 27.7663ZM133.965 202.568C134.076 202.541 134.189 202.521 134.302 202.506L134.267 202.56L133.965 202.568Z" fill="url(#paint0_linear)"/>
<path d="M172.504 200C172.504 200 180.062 209.473 181.81 209.279C183.557 209.085 187.624 212.951 185.301 214.131C182.978 215.312 169.601 216.064 163 211.038V203.465L172.504 200Z" fill="#ACA9C9"/>
<path d="M134.862 201C134.862 201 130.204 208.626 126.969 209.56C123.733 210.494 120.896 213.84 125.148 214.77C129.4 215.7 144.586 213.653 146 211.42V201.556L134.862 201Z" fill="#ACA9C9"/>
<path d="M129.315 124.793L133.114 151.629V164.104C133.103 165.997 133.334 167.883 133.802 169.718C135.042 174.442 134.022 190.92 133.446 198.739C133.258 201.289 133.114 202.92 133.114 202.92C135.598 201.784 146.115 205.379 146.115 205.379L147.179 201.796L148.026 198.945C150.322 197.243 148.426 166.769 148.026 159.749C147.766 154.954 149.926 139.411 151.31 130.095C151.709 127.462 152.033 125.343 152.229 124.069C152.353 123.277 152.421 122.837 152.421 122.837C152.843 123.177 153.193 123.596 153.453 124.069C153.782 124.628 154.064 125.213 154.297 125.819C158.144 135.443 159.895 162.96 159.895 165.411V191.288C159.887 193.841 160.241 196.383 160.947 198.838C161.421 200.629 161.767 202.451 161.983 204.29C162.255 206.345 162.383 208 162.383 208C162.575 206.864 174.427 201.752 174.427 201.752V158.597C174.427 158.597 174.999 141.572 176.723 124.714C177.463 117.046 176.717 109.308 174.523 101.917C174.047 100.305 173.572 98.9394 173.16 97.8586C172.46 96.0175 171.96 95 171.96 95H132.914C132.259 95.1227 131.715 96.4293 131.223 98.4128C130.903 99.7431 130.623 101.374 130.379 103.164C129.655 108.434 129.239 114.994 129.04 118.787C128.939 120.793 129.031 122.804 129.315 124.793Z" fill="#618FD8"/>
<path d="M138 48.1872L133.982 62.2353C133.982 62.2353 129.755 66.2059 126.3 62.2353C122.844 58.2647 120.715 47.6194 120.506 45.3403C120.297 43.0611 117.239 31.2922 116.086 31.2922C114.933 31.2922 103.41 32.0506 102.064 27.3216C100.987 23.5177 113.852 25.3363 119.003 26.19C119.638 26.2967 120.234 26.5601 120.738 26.9558C121.242 27.3515 121.636 27.8666 121.884 28.4532L129.783 47.0953C129.783 47.0953 133.966 42.3027 138 48.1872Z" fill="#F7C4A7"/>
<path d="M154 27C159.523 27 164 22.299 164 16.5C164 10.701 159.523 6 154 6C148.477 6 144 10.701 144 16.5C144 22.299 148.477 27 154 27Z" fill="#F7C4A7"/>
<path d="M159.577 17.7628C158.948 16.7946 160.226 15.5329 159.806 14.4733C159.418 13.4975 157.875 13.3298 157.356 12.4188C156.948 11.6832 157.356 10.7798 157.193 9.9679C156.96 8.91969 155.752 8.2679 154.605 8.21453C153.458 8.16117 152.352 8.56139 151.262 8.90444C149.486 9.46476 147.617 9.89548 145.755 9.69727C143.894 9.49907 142.037 8.55377 141.208 7.00242C141.073 6.77645 141.001 6.52196 141 6.26296C141.033 5.69121 141.596 5.29861 141.959 4.84121C142.596 4.04457 142.67 2.95824 143.249 2.1273C144.433 0.434914 147.033 0.476846 149.197 0.469222C152.381 0.469222 155.548 -0.0872805 158.732 0.011823C161.916 0.110926 165.263 0.953301 167.374 3.18694C169.904 5.87417 170.019 9.80781 169.998 13.3908C169.998 14.8659 169.933 16.4706 168.925 17.6103C168.631 17.9419 168.272 18.2164 167.99 18.5556C167.378 19.3179 167.214 20.2937 166.639 21.0675C165.618 22.4435 163.626 22.7789 161.851 23C162.373 22.9352 161.94 19.6686 161.851 19.3675C161.508 17.8466 161.136 17.8924 159.577 17.7628Z" fill="#281C1C"/>
<path d="M161.899 21C161.899 21 157.239 33.7191 163.155 38.2491C169.07 42.7791 142 44 142 44L145.674 40.6034C145.674 40.6034 148.272 30.5849 146.48 22.2209L161.899 21Z" fill="#F7C4A7"/>
<path d="M156.069 34.5496C156.069 34.5496 161.137 33.3202 161.137 32L164.43 33.8697C165.216 34.315 166.107 34.5494 167.014 34.5496H174.906C175.731 34.5472 176.544 34.7388 177.279 35.1086C178.015 35.4784 178.65 36.0157 179.134 36.6761C180.946 39.1941 182.57 44.1588 178.254 52.6929C171.37 66.2984 174.43 99.7311 174.43 99.7311C174.43 99.7311 149.953 95.383 129.681 102C129.681 102 132.741 87.0703 131.593 78.5678C130.445 70.0654 133.505 58.1873 133.505 58.1873L135.225 51.005C135.225 51.005 135.129 44.2853 128.053 47.6965C128.053 47.6965 127.029 38.2336 133.969 36.8817C134.162 36.8393 134.36 36.826 134.557 36.8422C136.041 36.9963 142.957 37.4904 145.173 33.7867C145.169 33.7906 150.717 37.0042 156.069 34.5496Z" fill="#E14B5A"/>
<path d="M176.245 51.3474C176.245 51.3474 170.11 55.0658 160.141 51.3474C160.141 51.3474 149.215 47.4578 145.762 39.8188C142.31 32.1798 134.262 23.8134 134.262 23.8134C134.262 23.8134 120.268 18.6053 121.03 13.4011C121.792 8.19696 137.133 19.1654 137.133 19.1654L143.268 24.743L163.205 41.1063C163.205 41.1063 167.616 41.1063 168.955 40.1767C170.294 39.2471 179.693 47.2556 176.245 51.3474Z" fill="#F7C4A7"/>
<path d="M100.637 24.7443L118.965 24.7443V24.3573L100.637 24.3573V24.7443Z" fill="#8ED16F"/>
<path d="M100.637 25.1312L118.965 25.1312V24.7443L100.637 24.7443V25.1312Z" fill="#8ED16F"/>
<path opacity="0.1" d="M100.637 25.1312L118.965 25.1312V24.7443L100.637 24.7443V25.1312Z" fill="black"/>
<path d="M100.637 25.5182L118.965 25.5182V25.1312L100.637 25.1312V25.5182Z" fill="#8ED16F"/>
<path d="M100.637 25.9015L118.965 25.9015V25.5145L100.637 25.5145V25.9015Z" fill="#8ED16F"/>
<path opacity="0.1" d="M100.637 25.9015L118.965 25.9015V25.5145L100.637 25.5145V25.9015Z" fill="black"/>
<path d="M100.637 26.2885L118.965 26.2885V25.9015L100.637 25.9015V26.2885Z" fill="#8ED16F"/>
<path d="M100.637 26.6719L118.965 26.6719V26.2849L100.637 26.2849V26.6719Z" fill="#8ED16F"/>
<path opacity="0.1" d="M100.637 26.6719L118.965 26.6719V26.2849L100.637 26.2849V26.6719Z" fill="black"/>
<path d="M100.637 27.0588L118.965 27.0588V26.6719L100.637 26.6719V27.0588Z" fill="#8ED16F"/>
<path d="M100.637 27.4421L118.965 27.4421V27.0552L100.637 27.0552V27.4421Z" fill="#8ED16F"/>
<path opacity="0.1" d="M100.637 27.4421L118.965 27.4421V27.0552L100.637 27.0552V27.4421Z" fill="black"/>
<path d="M100.637 21.6631L118.965 21.6631V21.2761L100.637 21.2761V21.6631Z" fill="#8ED16F"/>
<path d="M113.6 12.5019L127.691 24.2203L127.939 23.9228L113.848 12.2044L113.6 12.5019Z" fill="#8ED16F"/>
<path d="M100.754 6.33661L114.845 18.0551L115.092 17.7576L101.001 6.03911L100.754 6.33661Z" fill="#8ED16F"/>
<path d="M100.637 22.0464L118.965 22.0464V21.6595L100.637 21.6595V22.0464Z" fill="#8ED16F"/>
<path opacity="0.1" d="M100.637 22.0464L118.965 22.0464V21.6595L100.637 21.6595V22.0464Z" fill="black"/>
<path d="M100.637 22.437L118.965 22.437V22.0501L100.637 22.0501V22.437Z" fill="#8ED16F"/>
<path d="M100.637 22.8203L118.965 22.8203V22.4334L100.637 22.4334V22.8203Z" fill="#8ED16F"/>
<path opacity="0.1" d="M100.637 22.8203L118.965 22.8203V22.4334L100.637 22.4334V22.8203Z" fill="black"/>
<path d="M100.637 23.2036L118.965 23.2036V22.8167L100.637 22.8167V23.2036Z" fill="#8ED16F"/>
<path d="M100.637 23.5906L118.965 23.5906V23.2036L100.637 23.2036V23.5906Z" fill="#8ED16F"/>
<path opacity="0.1" d="M100.637 23.5906L118.965 23.5906V23.2036L100.637 23.2036V23.5906Z" fill="black"/>
<path d="M100.637 23.974L118.965 23.974V23.5871L100.637 23.5871V23.974Z" fill="#8ED16F"/>
<path d="M100.637 24.361L118.965 24.361V23.974L100.637 23.974V24.361Z" fill="#8ED16F"/>
<path opacity="0.1" d="M100.637 24.361L118.965 24.361V23.974L100.637 23.974V24.361Z" fill="black"/>
<path d="M98.3132 39.3847L104.88 40.604L107.257 27.8064L100.69 26.5871L98.3132 39.3847Z" fill="#8ED16F"/>
<path d="M104.222 33.8862C104.499 32.3979 104.12 31.0795 103.377 30.9415C102.634 30.8035 101.807 31.8981 101.531 33.3864C101.254 34.8747 101.633 36.1931 102.376 36.3311C103.119 36.4691 103.946 35.3745 104.222 33.8862Z" fill="#8ED16F"/>
<path opacity="0.1" d="M104.222 33.8862C104.499 32.3979 104.12 31.0795 103.377 30.9415C102.634 30.8035 101.807 31.8981 101.531 33.3864C101.254 34.8747 101.633 36.1931 102.376 36.3311C103.119 36.4691 103.946 35.3745 104.222 33.8862Z" fill="black"/>
<path d="M99.4371 66.397L106.004 67.6163L108.381 54.8187L101.814 53.5994L99.4371 66.397Z" fill="#8ED16F"/>
<path d="M105.343 60.8955C105.62 59.4073 105.241 58.0889 104.498 57.9509C103.755 57.8129 102.928 58.9075 102.652 60.3958C102.375 61.8841 102.754 63.2025 103.497 63.3405C104.24 63.4785 105.067 62.3838 105.343 60.8955Z" fill="#8ED16F"/>
<path opacity="0.1" d="M105.343 60.8955C105.62 59.4073 105.241 58.0889 104.498 57.9509C103.755 57.8129 102.928 58.9075 102.652 60.3958C102.375 61.8841 102.754 63.2025 103.497 63.3405C104.24 63.4785 105.067 62.3838 105.343 60.8955Z" fill="black"/>
<path d="M75.6856 0.00147478L72.5068 5.875L83.9556 12.0699L87.1344 6.19639L75.6856 0.00147478Z" fill="#8ED16F"/>
<path d="M83.3476 7.60333C83.7105 6.93816 82.9246 5.80991 81.5924 5.08332C80.2602 4.35673 78.8861 4.30694 78.5232 4.97211C78.1604 5.63728 78.9462 6.76553 80.2784 7.49212C81.6106 8.21872 82.9847 8.26851 83.3476 7.60333Z" fill="#8ED16F"/>
<path opacity="0.1" d="M83.3476 7.60333C83.7105 6.93816 82.9246 5.80991 81.5924 5.08332C80.2602 4.35673 78.8861 4.30694 78.5232 4.97211C78.1604 5.63728 78.9462 6.76553 80.2784 7.49212C81.6106 8.21872 82.9847 8.26851 83.3476 7.60333Z" fill="black"/>
<path d="M50.5469 115.914L47.3682 121.788L58.817 127.983L61.9957 122.109L50.5469 115.914Z" fill="#8ED16F"/>
<path d="M57.056 123.332C57.4158 122.667 56.6281 121.544 55.2967 120.823C53.9652 120.103 52.5942 120.058 52.2345 120.723C51.8747 121.387 52.6624 122.51 53.9938 123.231C55.3252 123.951 56.6962 123.996 57.056 123.332Z" fill="#8ED16F"/>
<path opacity="0.1" d="M57.056 123.332C57.4158 122.667 56.6281 121.544 55.2967 120.823C53.9652 120.103 52.5942 120.058 52.2345 120.723C51.8747 121.387 52.6624 122.51 53.9938 123.231C55.3252 123.951 56.6962 123.996 57.056 123.332Z" fill="black"/>
<path d="M35.167 20.2592L31.9883 26.1327L43.4371 32.3276L46.6158 26.4541L35.167 20.2592Z" fill="#8ED16F"/>
<path d="M41.6722 27.6711C42.032 27.0063 41.2443 25.8834 39.9129 25.1629C38.5814 24.4425 37.2104 24.3974 36.8507 25.0622C36.4909 25.727 37.2786 26.8499 38.61 27.5703C39.9414 28.2908 41.3124 28.3359 41.6722 27.6711Z" fill="#8ED16F"/>
<path opacity="0.1" d="M41.6722 27.6711C42.032 27.0063 41.2443 25.8834 39.9129 25.1629C38.5814 24.4425 37.2104 24.3974 36.8507 25.0622C36.4909 25.727 37.2786 26.8499 38.61 27.5703C39.9414 28.2908 41.3124 28.3359 41.6722 27.6711Z" fill="black"/>
<path d="M54.4434 3.13912e-05L51.2646 5.87354L62.7134 12.0684L65.8922 6.19494L54.4434 3.13912e-05Z" fill="#8ED16F"/>
<path d="M60.9495 7.41182C61.3093 6.74704 60.5216 5.62409 59.1902 4.90366C57.8588 4.18323 56.4878 4.13812 56.128 4.8029C55.7682 5.46768 56.5559 6.59062 57.8873 7.31105C59.2187 8.03148 60.5897 8.0766 60.9495 7.41182Z" fill="#8ED16F"/>
<path opacity="0.1" d="M60.9495 7.41182C61.3093 6.74704 60.5216 5.62409 59.1902 4.90366C57.8588 4.18323 56.4878 4.13812 56.128 4.8029C55.7682 5.46768 56.5559 6.59062 57.8873 7.31105C59.2187 8.03148 60.5897 8.0766 60.9495 7.41182Z" fill="black"/>
<path d="M73.6902 23.9045L67.0508 24.6304L68.4657 37.5696L75.1051 36.8438L73.6902 23.9045Z" fill="#8ED16F"/>
<path d="M71.2876 33.4728C72.0391 33.3907 72.5149 32.1042 72.3503 30.5995C72.1858 29.0947 71.4432 27.9414 70.6917 28.0236C69.9402 28.1058 69.4644 29.3922 69.629 30.897C69.7935 32.4017 70.5361 33.555 71.2876 33.4728Z" fill="#8ED16F"/>
<path opacity="0.1" d="M71.2876 33.4728C72.0391 33.3907 72.5149 32.1042 72.3503 30.5995C72.1858 29.0947 71.4432 27.9414 70.6917 28.0236C69.9402 28.1058 69.4644 29.3922 69.629 30.897C69.7935 32.4017 70.5361 33.555 71.2876 33.4728Z" fill="black"/>
<path d="M119.211 94.7576L112.571 95.4835L113.986 108.423L120.626 107.697L119.211 94.7576Z" fill="#8ED16F"/>
<path d="M116.812 104.326C117.563 104.244 118.039 102.957 117.875 101.453C117.71 99.9478 116.968 98.7946 116.216 98.8768C115.465 98.9589 114.989 100.245 115.153 101.75C115.318 103.255 116.061 104.408 116.812 104.326Z" fill="#8ED16F"/>
<path opacity="0.1" d="M116.812 104.326C117.563 104.244 118.039 102.957 117.875 101.453C117.71 99.9478 116.968 98.7946 116.216 98.8768C115.465 98.9589 114.989 100.245 115.153 101.75C115.318 103.255 116.061 104.408 116.812 104.326Z" fill="black"/>
<path d="M47.6915 51.391L44.5127 57.2645L55.9615 63.4594L59.1403 57.5859L47.6915 51.391Z" fill="#8ED16F"/>
<path d="M54.1956 58.8077C54.5554 58.1429 53.7677 57.02 52.4363 56.2995C51.1049 55.5791 49.7339 55.534 49.3741 56.1988C49.0143 56.8636 49.802 57.9865 51.1334 58.7069C52.4648 59.4274 53.8358 59.4725 54.1956 58.8077Z" fill="#8ED16F"/>
<path opacity="0.1" d="M54.1956 58.8077C54.5554 58.1429 53.7677 57.02 52.4363 56.2995C51.1049 55.5791 49.7339 55.534 49.3741 56.1988C49.0143 56.8636 49.802 57.9865 51.1334 58.7069C52.4648 59.4274 53.8358 59.4725 54.1956 58.8077Z" fill="black"/>
<path d="M18.8018 43.1404L15.623 49.0139L27.0718 55.2088L30.2506 49.3353L18.8018 43.1404Z" fill="#8ED16F"/>
<path d="M26.2577 50.9472C26.6206 50.282 25.8348 49.1538 24.5026 48.4272C23.1704 47.7006 21.7962 47.6508 21.4334 48.316C21.0705 48.9812 21.8563 50.1094 23.1885 50.836C24.5208 51.5626 25.8949 51.6124 26.2577 50.9472Z" fill="#8ED16F"/>
<path opacity="0.1" d="M26.2577 50.9472C26.6206 50.282 25.8348 49.1538 24.5026 48.4272C23.1704 47.7006 21.7962 47.6508 21.4334 48.316C21.0705 48.9812 21.8563 50.1094 23.1885 50.836C24.5208 51.5626 25.8949 51.6124 26.2577 50.9472Z" fill="black"/>
<path d="M9.54887 182.049L6.37012 187.922L17.8189 194.117L20.9976 188.244L9.54887 182.049Z" fill="#8ED16F"/>
<path d="M16.054 189.463C16.4138 188.798 15.6261 187.675 14.2947 186.954C12.9633 186.234 11.5923 186.189 11.2325 186.854C10.8727 187.518 11.6604 188.641 12.9918 189.362C14.3233 190.082 15.6942 190.127 16.054 189.463Z" fill="#8ED16F"/>
<path opacity="0.1" d="M16.054 189.463C16.4138 188.798 15.6261 187.675 14.2947 186.954C12.9633 186.234 11.5923 186.189 11.2325 186.854C10.8727 187.518 11.6604 188.641 12.9918 189.362C14.3233 190.082 15.6942 190.127 16.054 189.463Z" fill="black"/>
<path d="M1.2183 184.313L0 190.879L12.7992 193.253L14.0175 186.687L1.2183 184.313Z" fill="#8ED16F"/>
<path opacity="0.05" d="M1.2183 184.313L0 190.879L12.7992 193.253L14.0175 186.687L1.2183 184.313Z" fill="black"/>
<path opacity="0.1" d="M9.74718 190.061C9.89958 189.32 8.82108 188.473 7.33829 188.168C5.8555 187.862 4.52991 188.215 4.37751 188.956C4.22511 189.696 5.30361 190.544 6.7864 190.849C8.26919 191.154 9.59478 190.801 9.74718 190.061Z" fill="black"/>
<defs>
<linearGradient id="paint0_linear" x1="-248954" y1="162923" x2="-248954" y2="44204" gradientUnits="userSpaceOnUse">
<stop stop-color="#808080" stop-opacity="0.25"/>
<stop offset="0.54" stop-color="#808080" stop-opacity="0.12"/>
<stop offset="1" stop-color="#808080" stop-opacity="0.1"/>
</linearGradient>
</defs>
</svg>
